<?xml version="1.0" standalone="no"?>
<!DOCTYPE svg PUBLIC "-//W3C//DTD SVG 20010904//EN"
 "http://www.w3.org/TR/2001/REC-SVG-20010904/DTD/svg10.dtd">
<svg version="1.0" xmlns="http://www.w3.org/2000/svg"
 width="512.000000pt" height="512.000000pt" viewBox="0 0 512.000000 512.000000"
 preserveAspectRatio="xMidYMid meet">
<metadata>
Created by potrace 1.16, written by Peter Selinger 2001-2019
</metadata>
<g transform="translate(0.000000,512.000000) scale(0.100000,-0.100000)"
fill="#000000" stroke="none">
<path d="M605 5070 c-74 -24 -172 -98 -224 -168 -105 -139 -118 -339 -34 -493
14 -27 54 -76 89 -109 190 -182 452 -181 638 4 116 114 160 268 121 421 -38
146 -131 263 -260 325 -63 31 -80 34 -170 37 -79 2 -113 -1 -160 -17z m256 -6
c147 -43 258 -152 309 -304 18 -53 21 -82 18 -160 -3 -81 -8 -105 -35 -161
-105 -225 -365 -321 -585 -217 -283 134 -351 500 -135 719 56 57 149 113 213
128 62 14 156 12 215 -5z"/>
<path d="M3725 4965 c-30 -14 -30 -14 -4 -15 14 0 34 7 45 15 25 19 1 19 -41
0z"/>
<path d="M3755 4940 l-30 -8 27 -1 c15 0 30 4 33 9 3 6 5 9 3 9 -2 -1 -16 -5
-33 -9z"/>
<path d="M4790 4915 c-9 -11 -10 -19 -3 -26 8 -8 11 -6 10 6 -1 10 4 20 12 23
10 3 12 -1 8 -17 -3 -11 -1 -21 5 -21 13 0 6 42 -8 47 -6 2 -17 -3 -24 -12z"/>
<path d="M3423 4913 c18 -5 22 -15 10 -26 -3 -4 -13 -1 -22 5 -12 9 -11 7 1
-7 13 -14 21 -16 29 -8 16 16 4 43 -18 42 -17 -1 -17 -2 0 -6z"/>
<path d="M2783 4874 c-3 -8 2 -23 11 -32 15 -15 17 -15 32 0 21 21 11 48 -16
48 -11 0 -23 -7 -27 -16z m42 -14 c0 -22 -29 -18 -33 3 -3 14 1 18 15 15 10
-2 18 -10 18 -18z"/>
<path d="M3970 4828 c-11 -22 -11 -22 4 -4 12 15 19 17 27 9 17 -17 3 -44 -18
-37 -14 5 -15 4 -4 -4 8 -6 20 -8 28 -5 18 7 16 50 -3 57 -22 8 -22 8 -34 -16z"/>
<path d="M2440 4730 l-25 -8 27 -1 c15 -1 30 4 33 9 7 11 0 11 -35 0z"/>
<path d="M5000 4663 c-146 -15 -385 -75 -560 -140 -450 -167 -922 -538 -1299
-1021 -36 -45 -67 -82 -70 -82 -3 0 -24 11 -46 23 -36 21 -40 26 -37 57 5 45
33 98 71 133 21 20 32 41 37 73 10 72 0 151 -24 184 -12 16 -22 41 -22 56 0
86 -151 262 -276 321 -172 82 -363 37 -491 -114 -40 -48 -42 -49 -123 -61 -93
-13 -204 -59 -244 -101 -39 -41 -66 -114 -79 -212 l-11 -89 -83 0 c-158 0
-224 -32 -256 -125 l-14 -40 -69 -8 c-74 -8 -94 -22 -94 -66 0 -18 -9 -31 -29
-43 -35 -19 -51 -66 -51 -153 0 -37 -6 -68 -15 -79 -12 -16 -14 -41 -9 -126 8
-123 0 -200 -21 -200 -19 0 -45 -39 -45 -67 0 -13 -2 -23 -4 -23 -10 0 -254
98 -387 155 -81 35 -225 89 -320 121 -96 31 -226 77 -289 100 -120 46 -140 51
-140 34 0 -5 5 -10 10 -10 19 0 215 -81 228 -94 17 -16 -157 33 -206 58 -58
30 -33 -2 46 -58 42 -30 91 -66 107 -80 49 -42 5 -32 -91 20 -47 26 -88 44
-91 41 -5 -6 235 -127 251 -127 4 0 4 5 0 12 -5 7 -2 9 7 5 44 -20 238 -96
259 -102 43 -12 9 12 -46 33 -27 10 -77 37 -110 58 -81 55 -143 89 -184 103
-19 6 -46 20 -60 31 -23 18 -18 18 67 -5 118 -31 225 -85 386 -193 70 -47 129
-83 132 -80 7 7 -172 127 -298 199 -59 34 -106 64 -103 66 7 7 106 -26 146
-49 19 -12 69 -39 110 -61 41 -22 93 -53 115 -69 96 -68 155 -103 229 -135 43
-18 81 -31 84 -28 4 4 -141 75 -154 75 -12 0 -125 82 -120 87 3 3 63 -25 133
-61 70 -37 117 -58 103 -47 -38 32 -196 111 -228 116 -24 2 -239 115 -221 115
31 0 382 -151 410 -176 8 -8 19 -11 22 -7 4 3 51 -11 106 -33 l99 -38 -5 -76
c-3 -41 -8 -77 -10 -80 -6 -7 -136 41 -155 58 -27 23 -21 32 13 20 58 -20 38
-2 -31 29 -38 17 -72 27 -76 22 -3 -5 -35 -8 -72 -8 l-67 1 50 13 c40 11 44
13 20 14 -16 0 -48 -4 -70 -9 -27 -6 -43 -6 -50 2 -7 8 -6 9 4 3 10 -6 12 -4
7 4 -5 7 -15 10 -23 7 -8 -3 -11 -2 -8 4 3 5 -8 16 -24 25 -38 19 -51 19 -25
0 29 -22 6 -18 -91 15 -48 17 -93 29 -99 26 -7 -3 -6 -5 2 -5 19 -1 254 -103
249 -107 -2 -3 -24 3 -48 11 -64 23 -466 145 -476 145 -21 -1 91 -41 437 -155
442 -146 433 -143 423 -119 -5 13 -3 16 9 11 9 -3 35 -11 58 -18 l42 -13 -5
-59 c-3 -32 -8 -61 -11 -64 -3 -3 -85 4 -183 16 -98 12 -236 26 -308 31 -193
15 -377 51 -429 86 -10 7 -25 10 -33 7 -8 -3 -43 2 -79 12 -36 10 -68 15 -71
12 -3 -4 15 -12 40 -19 36 -9 44 -15 36 -25 -9 -10 -17 -9 -41 3 -16 9 -32 13
-34 11 -3 -3 23 -19 58 -38 55 -28 74 -33 148 -35 62 -2 75 -1 47 5 -21 4 -43
13 -50 20 -15 15 -1 14 59 -3 27 -8 72 -18 99 -22 42 -6 46 -8 25 -14 -14 -4
-40 -16 -58 -27 l-33 -20 73 -26 c117 -40 115 -40 131 -17 14 20 16 20 97 4
46 -8 158 -40 249 -69 91 -30 189 -58 216 -62 50 -8 50 -8 53 -49 l3 -42 -43
9 c-24 4 -52 8 -63 8 l-20 0 20 -9 c11 -4 36 -12 55 -17 30 -9 21 -11 -70 -17
-82 -6 -120 -4 -173 8 -105 25 -121 18 -32 -13 44 -15 98 -36 120 -45 49 -21
117 -37 110 -26 -3 5 -27 16 -53 26 -55 20 -74 34 -47 34 33 0 65 -12 59 -21
-3 -5 7 -9 22 -9 32 0 130 -54 144 -80 18 -33 11 -45 -38 -62 -99 -36 -172
-114 -172 -186 0 -15 -5 -33 -11 -39 -19 -19 0 -33 42 -33 32 0 39 -3 39 -20
0 -15 -7 -20 -29 -20 -17 0 -33 -5 -36 -10 -4 -6 8 -10 29 -10 20 0 36 -4 36
-10 0 -5 -9 -10 -20 -10 -12 0 -34 -7 -50 -15 l-28 -15 -16 48 c-16 48 -60 99
-103 121 -37 19 -107 13 -143 -12 -50 -33 -72 -78 -76 -155 -4 -76 -12 -80
-58 -29 l-30 31 25 7 24 7 -26 1 c-19 1 -28 8 -33 24 -12 44 -8 50 25 43 40
-8 35 15 -7 29 -47 16 -51 22 -58 79 -7 54 -18 74 -80 151 -16 19 -27 38 -24
41 15 14 265 36 428 37 113 1 168 4 140 8 -78 13 -262 10 -416 -7 -81 -8 -151
-17 -155 -19 -4 -3 -13 3 -20 12 -26 31 -76 43 -171 42 -51 -1 -104 -4 -118
-8 -14 -5 31 -8 102 -7 121 1 128 0 152 -23 14 -14 26 -30 26 -36 0 -7 13 -31
30 -53 36 -50 38 -74 7 -99 -13 -10 -29 -28 -36 -41 -7 -13 -21 -22 -34 -22
-27 0 -62 -23 -62 -41 0 -6 -11 -16 -23 -20 -20 -7 -25 -5 -29 11 -4 16 -8 18
-19 9 -9 -8 -36 -10 -74 -6 -51 4 -60 3 -60 -11 0 -13 27 -26 103 -50 153 -48
278 -108 483 -231 102 -62 190 -109 196 -105 7 4 2 13 -12 24 l-23 18 42 7
c32 5 50 2 79 -13 20 -11 95 -49 165 -86 169 -87 257 -145 337 -221 36 -34 83
-74 104 -88 21 -14 56 -47 77 -72 22 -26 39 -43 39 -38 0 5 -5 14 -12 21 -27
27 5 19 95 -24 99 -46 118 -60 70 -51 l-28 5 28 -24 c16 -13 37 -24 48 -24 10
0 19 -4 19 -9 0 -5 23 -18 51 -31 44 -19 62 -21 122 -15 46 5 65 10 56 16 -8
5 -40 6 -72 3 -42 -5 -69 -2 -102 11 -53 20 -62 41 -12 30 17 -4 65 -9 104
-10 53 -3 89 -11 130 -30 32 -14 78 -30 103 -36 47 -11 90 -33 90 -48 0 -5
-23 -1 -50 10 -64 24 -117 24 -157 -1 -45 -27 -45 -63 -1 -90 45 -27 79 -25
193 10 54 17 100 28 103 25 8 -7 7 -8 -100 -64 -53 -29 -102 -58 -108 -66 -23
-28 13 -16 113 35 l97 51 0 -42 c0 -56 25 -104 68 -131 28 -17 56 -23 125 -26
l88 -5 -63 -35 c-94 -52 -148 -91 -148 -108 0 -17 24 -13 105 17 57 22 324
195 339 221 8 12 7 21 -1 29 -10 10 -33 -2 -103 -50 -49 -34 -98 -64 -107 -67
-10 -3 1 6 24 20 50 32 89 93 99 156 6 39 17 54 83 117 66 62 88 77 168 107
93 36 163 45 193 26 11 -7 12 -10 2 -10 -8 0 -32 -18 -54 -40 -30 -31 -43 -38
-53 -30 -16 13 -107 0 -112 -16 -10 -31 117 -44 233 -23 78 14 337 87 392 110
29 13 42 15 40 7 -7 -21 -89 -56 -253 -109 -199 -63 -231 -76 -275 -115 -19
-17 -52 -41 -72 -53 -23 -14 -38 -30 -38 -42 0 -17 8 -19 73 -19 139 0 343 42
438 91 20 10 61 40 90 66 30 27 83 72 119 101 36 29 74 66 84 83 17 29 17 31
1 49 -9 10 -30 22 -46 25 -16 4 -29 9 -29 11 0 17 39 58 79 83 26 17 58 42 70
55 13 14 36 28 52 31 15 4 57 29 91 57 83 66 134 91 265 129 134 39 145 45
141 71 -2 16 -24 30 -83 56 -99 43 -137 43 -303 2 -68 -16 -133 -30 -145 -30
-13 0 -33 14 -51 36 -50 63 -136 81 -238 50 l-46 -15 15 45 c10 31 23 48 39
55 14 5 102 13 197 19 157 9 221 17 300 36 l28 6 -23 -35 c-18 -28 -33 -38
-70 -47 -25 -6 -55 -18 -65 -25 -15 -12 -9 -12 42 0 175 39 238 55 243 59 3 3
-1 12 -7 20 -11 12 -6 16 26 21 121 21 249 50 408 93 99 27 224 57 278 67 79
14 97 21 97 35 0 18 -36 30 -92 30 -17 0 -52 12 -79 26 -41 23 -50 33 -55 63
-3 20 -17 55 -30 78 -13 23 -24 44 -24 46 0 6 139 61 215 85 60 19 60 19 63
61 l3 42 -24 -16 c-13 -8 -29 -26 -34 -38 -8 -17 -39 -34 -120 -65 -110 -43
-133 -48 -133 -34 0 5 -15 26 -33 48 -21 23 -39 60 -46 91 -15 61 -29 75 -95
91 -27 7 -67 26 -90 42 -58 42 -138 71 -216 77 -67 6 -194 -10 -220 -28 -10
-6 0 -7 30 -2 86 15 221 9 278 -12 28 -10 52 -23 52 -27 0 -11 -12 -10 -61 7
-29 11 -46 12 -53 5 -7 -7 -6 -10 2 -10 25 0 11 -31 -23 -51 -41 -25 -45 -50
-10 -73 14 -9 25 -21 25 -26 0 -6 -11 -15 -25 -20 -18 -7 -25 -17 -25 -35 0
-20 -5 -25 -25 -25 -20 0 -25 5 -25 24 0 28 -33 56 -66 56 -12 0 -32 8 -45 19
-21 16 -22 22 -11 45 12 28 50 49 120 66 33 8 42 15 42 32 0 19 -4 20 -52 15
-70 -9 -165 -57 -231 -116 -29 -27 -99 -74 -155 -105 -105 -57 -165 -97 -158
-104 2 -2 22 8 43 21 43 28 179 97 189 97 3 0 -2 -12 -12 -28 -10 -15 -30 -63
-45 -106 l-26 -79 -58 -21 c-32 -12 -60 -27 -63 -34 -3 -10 5 -9 34 3 85 36
84 36 84 14 0 -11 -8 -22 -17 -26 -18 -6 -130 -50 -148 -59 -6 -3 -9 38 -7
114 4 136 -13 198 -74 277 l-34 45 68 0 c44 0 79 6 101 18 43 21 129 119 134
152 3 19 16 28 68 45 74 25 165 70 174 86 4 6 -11 1 -33 -10 -22 -11 -81 -36
-132 -55 -71 -27 -98 -33 -116 -26 -13 5 -24 13 -24 18 0 11 131 138 156 150
14 7 24 8 31 1 6 -6 38 9 94 47 93 63 319 230 419 310 36 29 90 65 120 79 67
33 152 86 147 91 -5 5 -211 -100 -248 -127 -15 -10 -37 -19 -48 -19 -12 0 -29
-8 -39 -18 -23 -23 -113 -74 -120 -67 -9 9 27 53 49 60 12 4 46 27 76 51 30
24 63 44 74 44 18 0 17 -3 -8 -26 l-28 -25 35 17 c19 9 46 26 60 39 27 24 120
80 120 72 0 -3 -16 -15 -36 -27 -19 -12 -33 -24 -30 -27 7 -8 115 60 121 76 3
8 0 18 -6 22 -15 9 13 57 39 66 9 3 25 14 35 25 10 10 28 18 41 18 12 0 43 15
67 33 24 19 79 59 122 91 66 49 92 76 72 76 -2 0 -57 -40 -122 -90 -70 -54
-126 -90 -140 -90 -34 0 -104 -54 -134 -103 -19 -31 -45 -53 -100 -84 -41 -24
-84 -43 -97 -43 -29 0 -58 -15 -100 -51 -18 -16 -50 -38 -71 -48 -23 -12 -43
-32 -50 -50 -7 -16 -36 -46 -64 -65 -29 -20 -83 -67 -122 -104 -38 -38 -90
-83 -115 -102 -43 -32 -43 -31 15 28 47 49 57 64 47 74 -9 9 -64 12 -211 9
-130 -2 -201 1 -205 8 -4 6 9 12 31 16 132 20 307 82 431 152 81 45 187 145
231 217 19 31 51 101 71 155 21 55 54 126 74 158 37 59 44 88 77 300 6 40 17
77 25 84 19 16 19 -7 -1 -45 -20 -39 -18 -46 5 -17 11 13 20 37 20 53 0 26 15
45 86 112 107 100 212 181 318 246 110 67 111 68 104 75 -7 8 -150 -82 -249
-157 -42 -31 -132 -108 -200 -171 -113 -105 -124 -118 -126 -152 -2 -43 -15
-60 -37 -52 -22 9 -20 34 4 47 11 6 20 15 20 21 0 15 -38 -8 -50 -31 -9 -17
-5 -26 25 -56 22 -21 34 -42 31 -52 -2 -9 -7 -32 -11 -49 -7 -36 -17 -39 -100
-34 -52 3 -68 24 -61 79 13 101 114 232 165 214 8 -3 11 0 7 7 -15 23 -51 10
-94 -35 -57 -60 -94 -140 -95 -206 -1 -59 17 -78 74 -78 24 0 39 -5 43 -16 10
-26 7 -36 -8 -31 -19 8 -52 -41 -38 -55 17 -17 62 36 62 71 0 28 15 49 27 37
10 -10 -6 -50 -43 -111 -20 -33 -47 -91 -61 -130 -43 -120 -84 -186 -168 -271
-67 -68 -97 -90 -180 -131 -162 -81 -319 -132 -402 -133 -28 0 -33 4 -33 23 0
17 17 33 71 66 76 47 199 147 199 161 0 5 -43 -23 -95 -63 -52 -39 -115 -86
-140 -104 l-44 -32 -27 34 c-29 39 -64 104 -64 120 0 6 -11 22 -24 34 -14 13
-32 38 -40 55 -42 88 -210 249 -313 299 -24 12 -43 25 -43 29 0 15 181 230
304 362 322 345 673 589 1046 729 175 65 539 147 656 147 7 0 14 5 14 10 0 10
-47 11 -120 3z m-2263 -404 c28 -11 71 -37 95 -59 l43 -39 -60 16 c-39 10 -87
14 -137 11 -104 -6 -202 -54 -286 -138 -32 -33 -64 -60 -70 -60 -10 0 -23 33
-36 93 -6 23 1 36 44 81 108 115 259 150 407 95z m100 -105 c29 -9 67 -30 85
-45 l33 -29 -60 27 c-44 20 -82 28 -142 31 -105 6 -187 -18 -303 -88 l-85 -52
49 50 c115 118 268 156 423 106z m4 -60 c70 -21 169 -82 180 -112 14 -37 10
-60 -5 -26 -24 54 -184 134 -269 134 -150 0 -359 -113 -388 -209 l-11 -38 -25
25 c-13 13 -23 28 -21 33 5 16 161 129 213 154 110 54 228 68 326 39z m-547
-103 c4 -6 3 -11 -3 -11 -5 0 -16 -3 -25 -6 -13 -5 -16 3 -16 48 0 70 12 81
26 25 6 -25 14 -50 18 -56z m-74 81 c0 -5 -24 -14 -52 -21 -80 -18 -128 -49
-155 -101 -19 -38 -25 -70 -33 -200 -6 -101 -18 -185 -32 -241 -22 -83 -25
-88 -87 -145 l-64 -59 6 100 c6 120 9 129 54 156 61 38 66 55 67 212 1 115 5
148 19 174 35 65 84 97 181 118 74 16 96 18 96 7z m-58 -73 c-60 -58 -68 -79
-102 -251 -38 -197 -65 -301 -79 -306 -14 -5 -14 58 -1 113 6 22 14 108 20
191 10 159 18 194 53 233 27 29 93 61 127 61 24 0 23 -2 -18 -41z m44 -160
c-29 -34 -41 -85 -32 -132 l5 -32 -17 30 c-26 47 -22 166 9 230 51 105 54 105
57 15 3 -74 1 -84 -22 -111z m-271 125 c-8 -16 -20 -55 -27 -86 -9 -45 -16
-58 -30 -58 -15 0 -17 5 -12 28 12 48 24 76 51 115 30 43 41 44 18 1z m365 -6
c0 -17 -38 -97 -43 -92 -9 9 -9 79 0 87 6 7 43 10 43 5z m369 -24 c25 -21 31
-33 31 -66 0 -21 -5 -48 -10 -59 -12 -22 -61 -49 -89 -49 -80 0 -128 93 -80
154 41 52 101 60 148 20z m-540 -6 c-6 -12 -15 -33 -20 -47 -5 -17 -8 -20 -8
-8 -1 18 25 77 35 77 2 0 -1 -10 -7 -22z m286 -60 c-14 -29 -25 -69 -26 -88
-1 -19 -5 -46 -9 -60 -5 -15 -6 6 -3 50 6 76 13 101 41 133 23 27 23 21 -3
-35z m596 -16 c6 -21 10 -78 8 -128 -4 -93 -26 -151 -85 -231 -53 -70 -202
-110 -315 -83 -88 21 -169 67 -169 96 0 9 19 2 53 -19 83 -53 114 -62 212 -62
73 0 98 4 131 22 57 30 119 104 141 166 20 59 23 204 5 250 -7 15 -8 27 -2 27
5 0 14 -17 21 -38z m64 -80 c0 -42 -5 -86 -12 -97 -9 -16 -11 -5 -10 55 1 41
-2 93 -7 115 -7 39 -7 39 11 22 14 -14 18 -33 18 -95z m-746 55 c33 -69 23
-171 -18 -185 -11 -4 -10 1 2 19 23 33 22 111 -3 159 -23 44 -24 50 -11 50 5
0 19 -19 30 -43z m-238 -58 l-11 -34 5 34 c3 18 6 45 6 60 l2 26 4 -26 c2 -15
-1 -42 -6 -60z m219 -34 c0 -22 -5 -47 -10 -55 -8 -11 -9 -9 -5 10 3 14 1 45
-4 70 l-9 45 -1 -55 c-1 -61 -21 -100 -51 -100 -26 0 -40 30 -40 87 0 65 19
99 53 96 15 -1 27 4 28 10 2 30 38 -72 39 -108z m-417 58 c-7 -2 -19 -2 -25 0
-7 3 -2 5 12 5 14 0 19 -2 13 -5z m-25 -108 c-2 -70 -1 -82 10 -68 7 10 12 47
12 87 0 52 3 67 11 59 18 -18 6 -128 -15 -152 -10 -11 -23 -18 -27 -15 -13 8
-11 174 2 174 7 0 9 -29 7 -85z m199 -17 c-3 -8 -6 -5 -6 6 -1 11 2 17 5 13 3
-3 4 -12 1 -19z m-298 -4 c38 -8 39 -18 4 -33 -28 -11 -28 -12 -25 -90 l3 -79
-98 -11 c-156 -19 -307 -29 -316 -21 -5 4 -7 18 -5 31 2 19 10 24 38 27 115 8
117 9 135 62 17 53 56 98 89 105 12 2 30 6 41 8 32 7 100 7 134 1z m411 -138
c0 -6 -13 3 -30 19 -33 32 -36 42 -18 80 11 25 12 24 30 -32 10 -32 18 -62 18
-67z m48 24 c15 -25 26 -48 24 -52 -3 -11 122 -111 190 -151 90 -54 156 -71
268 -72 84 0 102 3 151 27 38 19 60 38 71 60 10 20 17 26 17 16 1 -29 -57 -86
-107 -105 -34 -13 -74 -18 -142 -18 -113 1 -180 19 -267 72 -63 39 -221 173
-237 202 -5 9 2 6 16 -6 37 -35 46 -27 11 10 -32 33 -53 75 -53 105 1 11 7 6
16 -13 9 -16 28 -50 42 -75z m-171 68 c-3 -8 -6 -5 -6 6 -1 11 2 17 5 13 3 -3
4 -12 1 -19z m323 -20 c0 -4 7 -8 15 -8 8 0 22 -11 30 -24 14 -21 14 -28 4
-48 -13 -22 -13 -22 -20 16 -10 59 -47 74 -75 30 -16 -24 -16 -27 3 -52 11
-15 28 -29 39 -31 10 -2 57 -25 104 -52 98 -56 205 -84 283 -75 55 6 140 49
168 84 10 14 19 20 19 15 0 -16 -78 -83 -114 -98 -93 -39 -219 -25 -339 37
-97 50 -173 109 -182 140 -4 13 -14 31 -23 41 -9 10 -10 17 -4 17 6 0 14 -5
17 -10 12 -19 45 9 45 38 1 26 1 26 15 8 8 -11 15 -23 15 -28z m-107 -55 c46
-61 112 -113 212 -166 84 -44 106 -50 215 -57 l105 -7 -91 -1 c-110 -2 -197
21 -294 78 -92 54 -147 105 -175 161 -42 82 -36 80 28 -8z m-226 25 c-3 -8 -6
-5 -6 6 -1 11 2 17 5 13 3 -3 4 -12 1 -19z m338 -27 c0 -29 -14 -36 -38 -18
-24 17 -12 49 17 45 15 -2 21 -10 21 -27z m-262 -23 c-29 -11 -32 -9 -20 17
11 23 13 24 25 8 10 -15 10 -19 -5 -25z m70 -34 c30 -16 83 -55 137 -104 42
-38 168 -118 203 -128 17 -6 45 -13 62 -17 26 -6 27 -8 12 -16 -10 -6 -24 -25
-32 -42 l-15 -32 5 33 c4 28 2 32 -19 32 -24 0 -57 -31 -71 -65 -7 -18 -9 -16
-15 11 -14 61 -54 128 -114 189 -78 79 -131 114 -209 136 l-62 18 43 0 c24 1
57 -6 75 -15z m1 -44 c68 -33 190 -150 221 -215 48 -97 43 -240 -11 -346 -41
-83 -60 -76 -22 7 33 73 32 245 0 327 -50 122 -179 223 -302 234 -41 4 -57 9
-48 15 21 14 110 2 162 -22z m-443 -26 c-12 -9 -35 -34 -51 -56 l-29 -40 6 39
c7 48 18 61 57 72 40 10 46 5 17 -15z m428 -9 c52 -27 122 -103 160 -174 26
-49 35 -80 39 -132 6 -81 -4 -150 -23 -175 -14 -17 -14 -13 -8 36 12 88 7 161
-16 222 -31 81 -42 81 -14 0 12 -37 22 -78 22 -92 -1 -19 -3 -15 -10 13 -22
95 -91 183 -179 228 -37 19 -60 23 -130 23 -47 0 -93 -5 -103 -10 -12 -7 11
-9 76 -6 78 4 102 1 139 -16 60 -26 122 -83 147 -135 41 -84 50 -217 15 -217
-10 0 -14 -12 -14 -38 0 -21 -6 -47 -14 -57 -12 -17 -14 -16 -20 17 -3 20 -24
63 -46 97 -22 34 -40 68 -40 77 0 8 9 34 20 57 l21 42 -25 -28 c-47 -52 -46
-67 17 -177 33 -58 49 -124 33 -144 -9 -12 -18 -8 -56 26 -30 27 -38 38 -24
34 15 -5 24 -2 28 9 3 10 2 13 -4 10 -6 -4 -44 7 -84 24 -94 39 -206 57 -271
43 -42 -9 -46 -8 -32 5 8 8 39 19 68 23 l54 9 -55 -4 c-30 -2 -66 -5 -80 -7
-23 -3 -25 1 -28 40 -3 45 28 173 54 224 28 55 98 120 159 150 52 25 69 29
125 25 36 -2 80 -12 99 -22z m-559 -28 c0 -39 -4 -47 -39 -75 -26 -21 -46 -49
-60 -84 l-20 -53 0 98 c-1 57 -5 97 -11 97 -6 0 -10 -33 -10 -80 0 -64 -3 -80
-15 -80 -8 0 -16 10 -16 23 l-2 22 -4 -22 c-4 -22 -9 -23 -89 -23 -46 0 -87 0
-91 0 -5 0 -8 37 -7 81 2 112 1 111 182 125 81 6 155 12 165 13 14 1 17 -7 17
-42z m1445 -67 c8 -25 17 -72 20 -105 5 -67 4 -64 -37 80 -11 39 -28 86 -39
105 l-20 35 30 -35 c17 -19 37 -55 46 -80z m7 73 c50 -57 71 -155 55 -257
l-12 -71 -6 106 c-5 91 -11 117 -37 173 -30 65 -30 83 0 49z m101 -66 c9 -18
23 -65 32 -105 19 -82 47 -122 106 -153 22 -11 39 -23 39 -28 0 -5 -17 -19
-37 -32 -21 -12 -63 -43 -93 -69 -74 -62 -88 -70 -64 -34 11 16 31 47 44 69
l23 40 -32 -38 c-18 -20 -41 -42 -52 -47 -16 -9 -14 -1 13 52 26 52 32 76 34
143 3 77 3 78 -6 28 -10 -55 -45 -139 -62 -149 -6 -4 -8 1 -4 13 36 114 40
240 10 327 -18 50 -18 49 10 31 13 -9 31 -31 39 -48z m-328 13 c-3 -5 -14 -10
-23 -9 -14 0 -13 2 3 9 27 11 27 11 20 0z m391 -32 c4 -6 8 -35 8 -63 1 -40 7
-60 28 -87 31 -40 82 -68 126 -68 31 0 58 -22 47 -40 -8 -13 -75 -13 -75 0 0
5 -20 19 -45 31 -71 34 -83 54 -118 201 -13 54 -13 56 4 47 10 -5 21 -14 25
-21z m-256 -52 c0 -26 -9 -16 -20 25 -9 31 -8 32 5 15 8 -11 15 -29 15 -40z
m-1370 30 c0 -7 -5 -38 -11 -67 -6 -30 -10 -152 -10 -277 1 -133 -2 -221 -8
-218 -5 3 -17 58 -26 122 -17 109 -17 122 -1 218 21 133 19 173 -5 66 -22
-104 -24 -228 -4 -359 8 -54 19 -199 25 -323 6 -124 14 -259 19 -299 5 -41 13
-119 16 -174 7 -93 6 -101 -14 -119 -19 -17 -31 -18 -133 -11 -62 4 -135 10
-161 15 -54 8 -92 38 -102 81 -6 26 -6 27 37 23 117 -10 219 -11 224 -3 3 5 7
49 9 97 29 639 59 1097 75 1153 16 58 70 116 70 75z m150 -3 c0 -10 -9 -56
-21 -103 -22 -95 -27 -163 -15 -231 5 -30 3 -79 -5 -135 -12 -77 -14 -83 -17
-44 -1 25 -5 56 -9 70 l-6 25 -7 -25 c-26 -83 10 -377 55 -457 l24 -44 -22 6
c-41 13 -69 36 -85 73 -15 32 -17 77 -17 312 0 277 8 373 41 472 22 69 84 128
84 81z m1539 -97 c21 -34 40 -51 26 -23 -4 6 0 4 8 -5 8 -10 18 -14 22 -10 5
4 4 1 0 -7 -6 -11 -4 -13 9 -8 11 5 15 3 10 -5 -5 -7 0 -9 14 -6 12 4 25 1 29
-4 11 -19 -65 -1 -97 22 -38 27 -60 69 -59 112 l1 33 8 -31 c4 -18 17 -48 29
-68z m24 41 c4 3 7 4 7 0 0 -18 -21 -14 -30 5 -10 21 -10 21 3 6 8 -10 17 -15
20 -11z m-419 -13 c9 -3 16 -15 16 -25 0 -18 -9 -19 -134 -19 -98 0 -135 -3
-138 -12 -3 -7 -3 -75 0 -150 l4 -138 115 0 c87 0 114 -3 111 -12 -5 -15 -256
-24 -269 -11 -14 14 -13 341 1 358 10 12 40 15 145 15 74 0 140 -3 149 -6z
m104 -6 c7 -7 12 -29 12 -50 0 -31 -4 -38 -20 -38 -13 0 -22 10 -29 33 -8 28
-10 23 -12 -43 l-3 -75 -5 85 c-3 47 -5 88 -3 93 5 11 47 8 60 -5z m350 -16
c2 -7 -2 -10 -12 -6 -9 3 -16 11 -16 16 0 13 23 5 28 -10z m-1876 -25 c-5 -7
-12 -25 -16 -40 -5 -21 -11 -27 -22 -23 -9 3 -63 6 -120 6 l-105 0 3 33 3 32
125 5 c135 5 146 4 132 -13z m1034 -4 c-10 -10 -19 5 -10 18 6 11 8 11 12 0 2
-7 1 -15 -2 -18z m548 -4 c3 -17 5 -68 5 -113 l-2 -81 -8 75 c-4 41 -10 92
-13 113 -7 45 9 50 18 6z m-1573 -69 l-9 -45 -1 42 c-1 44 11 91 16 63 2 -8
-1 -35 -6 -60z m1439 -91 c0 -131 -2 -159 -14 -159 -8 0 -16 10 -18 23 -3 21
-8 22 -118 27 l-115 5 -3 120 c-2 93 0 122 11 130 8 5 69 11 136 12 l121 1 0
-159z m-390 126 c0 -8 -9 -15 -20 -15 -11 0 -20 7 -20 15 0 8 9 15 20 15 11 0
20 -7 20 -15z m-69 -192 c-13 -48 -68 -136 -80 -129 -5 4 4 30 20 59 29 54 57
154 61 217 1 19 4 2 5 -37 2 -40 -1 -90 -6 -110z m96 80 c-2 -21 -4 -6 -4 32
0 39 2 55 4 38 2 -18 2 -50 0 -70z m-29 -2 c-5 -84 -8 -93 -43 -141 -21 -28
-39 -49 -41 -47 -2 1 7 30 20 62 14 33 27 95 31 138 6 59 11 77 23 77 12 0 14
-14 10 -89z m-1087 58 c8 -16 10 -116 6 -358 -3 -185 -6 -337 -6 -337 -1 -1
-27 5 -58 12 -32 8 -83 14 -113 15 -40 1 -48 3 -30 8 25 7 25 7 3 13 -22 6
-23 10 -23 122 l0 116 34 0 c18 0 48 3 65 6 l31 7 0 -76 c0 -47 5 -78 13 -85
9 -8 11 7 8 74 -2 70 0 87 13 97 14 10 15 27 9 127 l-8 115 -82 3 -83 3 0 79
0 80 105 0 c96 0 105 -2 116 -21z m1589 -9 c0 -16 -7 -20 -35 -20 -22 0 -35 5
-35 13 0 20 10 27 42 27 21 0 28 -5 28 -20z m-2814 -62 l19 -23 -25 20 c-14
11 -27 21 -29 22 -2 2 0 3 6 3 5 0 18 -10 29 -22z m2731 -10 c-3 -7 -5 -2 -5
12 0 14 2 19 5 13 2 -7 2 -19 0 -25z m61 25 c-10 -2 -26 -2 -35 0 -10 3 -2 5
17 5 19 0 27 -2 18 -5z m470 -12 c3 -8 1 -11 -4 -8 -5 3 -25 2 -44 -3 l-35 -8
30 -1 c17 -1 42 -9 57 -19 l27 -18 -63 4 c-74 5 -97 -5 -188 -80 l-63 -53 35
43 c39 49 86 87 132 107 18 8 27 14 20 15 -26 0 -88 -39 -134 -86 -42 -42 -48
-46 -48 -26 0 30 71 105 123 131 49 25 147 26 155 2z m-450 -27 c2 -16 -4 -23
-23 -28 -31 -8 -45 -1 -45 23 0 25 10 32 40 29 17 -2 26 -10 28 -24z m-1018
-45 c30 -11 60 -21 67 -21 7 -1 11 -4 10 -7 -1 -3 22 -28 51 -55 30 -29 52
-57 52 -70 0 -16 -11 -10 -57 36 -74 73 -136 101 -223 101 -72 -1 -113 -13
-148 -46 l-24 -22 7 40 c4 22 14 46 23 53 26 20 177 15 242 -9z m1491 -6 c7
-7 -7 -9 -40 -5 -65 6 -145 -31 -197 -91 -20 -23 -32 -33 -26 -21 16 31 88 99
124 118 35 18 121 17 139 -1z m-2185 -23 l64 0 0 -100 c0 -114 6 -107 -105
-112 l-60 -3 0 45 0 45 68 24 c80 28 83 40 4 17 -30 -9 -58 -16 -61 -16 -3 0
-6 25 -6 56 0 47 3 55 16 50 9 -3 45 -6 80 -6z m685 -15 c44 -16 124 -63 117
-70 -2 -2 -28 5 -58 15 -88 31 -174 23 -248 -22 -50 -30 -31 -33 26 -4 30 15
75 28 109 30 55 5 56 5 12 -3 -25 -5 -65 -19 -90 -31 -82 -41 -120 -91 -118
-157 0 -30 2 -34 9 -18 5 11 11 33 15 49 10 47 73 102 138 121 81 23 101 13
49 -25 -45 -32 -90 -101 -103 -158 -12 -50 -1 -118 23 -145 l20 -22 -7 25
c-14 53 -17 139 -5 175 13 39 60 99 92 116 13 7 5 -8 -19 -39 -88 -111 -81
-223 18 -290 26 -18 42 -22 69 -17 28 5 42 1 61 -14 l24 -20 -29 -1 c-51 0
-160 22 -197 41 -46 23 -147 132 -170 184 -36 79 -18 220 33 256 57 41 152 51
229 24z m1078 -24 c57 -72 78 -154 46 -181 -13 -11 -15 -7 -15 22 0 22 -14 57
-40 101 -58 96 -52 135 9 58z m440 21 c19 -9 41 -28 50 -42 15 -23 15 -24 -4
-16 -35 14 -99 18 -125 7 -21 -8 -17 -10 31 -10 67 -1 116 -17 129 -40 8 -17
0 -18 -108 -19 -76 -1 -110 2 -97 8 15 7 16 9 4 9 -9 1 -22 -6 -29 -14 -7 -8
-28 -15 -46 -15 -25 0 -45 -10 -74 -36 -22 -20 -40 -32 -40 -26 0 6 5 14 11
17 5 4 22 31 36 61 53 113 169 164 262 116z m836 -7 c-64 -52 -92 -73 -141
-109 -48 -34 -52 -35 -57 -16 -6 22 48 77 102 105 51 26 35 0 -25 -39 -31 -21
-54 -40 -51 -42 9 -9 67 26 111 65 38 35 74 60 86 60 3 0 -8 -11 -25 -24z
m-1844 -53 c-25 -50 -92 -121 -98 -105 -2 7 22 46 53 89 60 78 81 86 45 16z
m66 18 l11 -30 116 0 c64 0 116 -4 116 -9 0 -12 -115 -20 -189 -12 l-64 7 31
-25 30 -26 -21 -25 c-28 -32 -84 -50 -118 -38 -13 5 -36 8 -51 5 -32 -4 -38 9
-8 18 28 9 97 91 110 131 14 42 22 43 37 4z m-1379 -213 c1 -128 -2 -234 -7
-248 -8 -21 -10 -18 -10 22 -1 25 -7 54 -15 65 -14 18 -15 18 -22 1 -4 -10 -2
-85 5 -165 7 -86 8 -160 3 -177 -21 -75 -30 346 -11 562 9 108 14 131 31 146
11 9 21 17 22 17 0 0 2 -100 4 -223z m1868 141 c8 -15 14 -43 14 -63 0 -31 -3
-35 -25 -35 -23 0 -25 4 -25 40 0 22 -7 57 -15 77 -8 19 -15 40 -15 46 0 15
50 -33 66 -65z m-202 30 c-4 -6 -11 -25 -15 -42 l-7 -31 -1 36 c-1 36 5 49 21
49 5 0 6 -5 2 -12z m50 -3 c-6 -16 -24 -21 -24 -7 0 11 11 22 21 22 5 0 6 -7
3 -15z m-549 -25 c-10 -11 -22 -20 -27 -20 -4 0 -8 9 -8 20 0 15 7 20 27 20
25 0 26 0 8 -20z m-225 0 c13 -8 12 -10 -3 -10 -67 0 -139 -77 -157 -167 -10
-47 -9 -62 5 -99 9 -24 26 -51 38 -59 12 -8 18 -15 14 -15 -17 0 -81 50 -98
77 -24 35 -25 113 -3 156 26 50 65 97 93 112 30 16 89 19 111 5z m790 -92 c17
-16 41 -28 55 -28 14 0 25 -5 25 -10 0 -37 -91 -5 -120 43 -11 17 -20 48 -20
67 l1 35 14 -40 c8 -22 28 -52 45 -67z m34 90 c7 -7 11 -20 8 -30 -4 -16 -6
-16 -27 4 -17 16 -20 25 -12 30 16 10 16 10 31 -4z m-44 -22 c0 -11 -19 -15
-25 -6 -3 5 1 10 9 10 9 0 16 -2 16 -4z m1105 -6 c10 -16 -28 -19 -375 -25
-258 -5 -340 -9 -356 -20 -12 -8 -70 -74 -130 -147 -151 -184 -177 -218 -172
-224 3 -2 83 0 179 6 96 5 210 9 254 9 75 -1 77 -2 30 -9 -69 -10 -505 -24
-505 -16 0 17 311 395 338 411 10 6 146 12 332 15 173 3 334 7 357 8 23 1 45
-2 48 -8z m-1814 -11 l38 -12 -29 -33 c-16 -19 -34 -53 -41 -76 -11 -44 -8
-169 5 -200 6 -14 3 -18 -14 -18 -23 0 -82 59 -113 113 l-18 32 6 -30 c4 -16
14 -38 22 -48 21 -22 11 -32 -17 -17 -32 17 -60 70 -60 116 0 54 44 141 84
165 35 22 82 24 137 8z m1906 -13 c-11 -24 -67 -65 -67 -50 0 10 62 74 71 74
4 0 2 -11 -4 -24z m-1302 -17 c9 -17 14 -33 11 -36 -3 -3 -25 0 -50 6 -25 6
-70 11 -100 11 -31 0 -56 4 -56 9 0 15 82 38 142 40 32 1 40 -3 53 -30z
m-1956 -12 c25 -2 36 -8 42 -26 8 -21 7 -23 -13 -17 -13 3 -34 6 -47 6 -16 0
-21 4 -17 15 7 18 2 19 -22 4 -15 -9 -30 -8 -70 5 -29 10 -52 20 -52 23 0 3
33 3 73 -1 39 -4 87 -8 106 -9z m1488 7 l23 -6 -25 -20 c-60 -47 -87 -181 -50
-251 10 -21 11 -27 2 -24 -34 11 -58 146 -36 204 8 23 8 26 -3 15 -20 -19 -23
-141 -5 -185 15 -35 15 -37 -2 -37 -10 0 -25 8 -34 18 -18 20 -38 99 -32 127
2 11 7 37 10 58 9 53 58 107 99 107 17 0 41 -3 53 -6z m845 -33 c-2 -13 -132
-178 -177 -227 -28 -30 -35 -32 -115 -37 -51 -3 -77 -2 -65 3 11 5 50 9 87 9
l67 1 50 71 c43 61 49 74 40 95 -12 34 -13 31 21 49 17 9 36 27 42 40 8 19 15
22 32 15 11 -4 20 -13 18 -19z m-1505 -3 c-3 -8 -6 -5 -6 6 -1 11 2 17 5 13 3
-3 4 -12 1 -19z m893 12 c0 -5 -12 -10 -27 -10 -22 0 -25 2 -13 10 20 13 40
13 40 0z m-203 -46 c-30 -43 -32 -50 -32 -135 0 -60 -4 -89 -11 -89 -15 0 -25
23 -34 80 -15 87 32 190 87 190 22 0 22 -1 -10 -46z m358 35 c44 -12 60 -27
111 -113 45 -75 36 -86 -10 -13 -28 43 -49 63 -96 88 -33 17 -60 36 -60 40 0
11 6 11 55 -2z m-295 -29 c-34 -37 -54 -114 -46 -178 6 -44 6 -46 -10 -27 -25
32 -14 144 20 195 15 23 34 40 45 40 17 0 15 -4 -9 -30z m261 -6 c76 -50 99
-73 120 -119 27 -58 24 -74 -7 -44 -37 35 -67 87 -58 101 6 10 3 9 -9 0 -14
-12 -24 -11 -67 3 -62 21 -75 14 -23 -11 43 -22 126 -124 112 -139 -6 -6 -26
7 -54 35 -34 34 -42 47 -33 57 6 7 8 16 5 19 -3 3 -10 -4 -17 -15 -9 -18 -17
-20 -50 -15 -40 6 -40 6 -40 -26 0 -17 -3 -30 -7 -28 -5 2 -25 10 -45 17 -43
17 -54 46 -38 97 12 35 62 84 86 84 13 0 13 -4 1 -27 -8 -16 -17 -39 -21 -53
-4 -14 5 -2 20 25 24 47 49 75 65 75 4 0 31 -16 60 -36z m257 -15 c33 0 34 -1
14 -10 -30 -12 -86 11 -103 42 -11 22 -10 22 20 -4 22 -18 45 -27 69 -28z
m1082 47 c0 -2 -12 -11 -27 -20 l-28 -17 24 20 c23 21 31 25 31 17z m-975 -16
c-3 -5 -14 -10 -23 -10 -15 0 -15 2 -2 10 20 13 33 13 25 0z m-75 -176 c0 -3
-21 6 -46 19 -46 23 -139 131 -128 149 5 7 174 -157 174 -168z m-1216 18 c26
-38 62 -82 80 -96 26 -19 33 -31 29 -47 -5 -18 -11 -20 -42 -15 -78 12 -116
66 -137 193 -18 114 -17 127 5 77 10 -23 40 -73 65 -112z m717 112 c-26 -33
-28 -109 -5 -143 16 -22 16 -23 -5 -12 -25 14 -35 50 -28 98 7 39 32 83 48 83
6 0 1 -12 -10 -26z m543 -33 c-8 -9 -22 12 -17 26 6 15 7 14 13 -3 4 -10 6
-21 4 -23z m-2359 -92 c135 -11 414 -45 419 -51 2 -1 6 -33 10 -69 l6 -65 -57
7 c-32 4 -112 26 -178 48 -116 40 -208 65 -326 90 -31 7 -71 23 -90 36 l-33
25 59 -5 c33 -3 118 -10 190 -16z m954 -132 c27 -62 40 -182 20 -175 -8 3 -17
18 -20 34 -4 18 -8 -3 -9 -56 l-3 -85 -12 85 c-7 47 -15 146 -18 220 -6 129
-6 133 8 80 7 -30 23 -76 34 -103z m1031 86 c0 -17 -11 -16 -38 3 -13 9 -22
26 -22 41 l0 27 30 -29 c17 -16 30 -35 30 -42z m-2252 40 c2 -8 -6 -13 -20
-14 -23 -1 -23 -1 2 -9 15 -5 18 -8 8 -9 -25 -2 -48 10 -48 24 0 25 50 31 58
8z m3363 -40 c5 -14 7 -33 4 -42 -5 -12 -11 -9 -30 14 -26 30 -29 37 -18 48
14 15 34 6 44 -20z m-71 2 c13 -15 17 -72 6 -82 -9 -9 -36 18 -29 30 3 5 -2
16 -12 23 -19 14 -14 44 8 44 8 0 20 -7 27 -15z m130 -35 c0 -5 -4 -10 -10
-10 -5 0 -10 5 -10 10 0 6 5 10 10 10 6 0 10 -4 10 -10z m-870 -10 c0 -6 -25
-9 -57 -8 l-58 1 50 7 c28 4 53 8 58 8 4 1 7 -2 7 -8z m-1582 -16 c40 -6 42
-8 42 -41 l0 -35 -100 4 c-55 1 -100 0 -100 -3 0 -9 183 -21 203 -13 15 6 17
-4 15 -102 -1 -95 -2 -101 -7 -44 l-6 65 -40 -1 c-22 -1 -76 -5 -119 -9 l-79
-8 7 69 c3 38 9 84 13 103 l6 33 61 -6 c33 -4 80 -9 104 -12z m1459 10 c-3 -3
-12 -4 -19 -1 -8 3 -5 6 6 6 11 1 17 -2 13 -5z m743 -7 c0 -7 -6 -22 -14 -33
-12 -15 -17 -16 -27 -7 -10 10 -9 17 6 33 21 23 35 26 35 7z m58 -4 c-4 -22
-22 -20 -26 1 -2 10 3 16 13 16 10 0 15 -7 13 -17z m-935 -4 c16 -9 22 -9 25
1 3 9 6 9 13 -1 8 -12 10 -12 18 0 8 12 12 12 26 -3 11 -10 25 -14 37 -10 12
4 24 1 30 -7 7 -11 11 -11 15 -1 2 6 22 12 43 12 33 0 37 -3 33 -20 -6 -24 9
-24 -243 0 -113 11 -211 20 -217 20 -7 0 -13 5 -13 10 0 14 206 13 233 -1z
m1064 -4 c8 -22 -6 -33 -17 -15 -13 20 -12 30 0 30 6 0 13 -7 17 -15z m-2320
-37 c-3 -7 -5 -2 -5 12 0 14 2 19 5 13 2 -7 2 -19 0 -25z m-270 -35 c-3 -10
-5 -2 -5 17 0 19 2 27 5 18 2 -10 2 -26 0 -35z m640 -80 c-2 -21 -4 -4 -4 37
0 41 2 58 4 38 2 -21 2 -55 0 -75z m2433 97 c-8 -5 -24 -10 -34 -10 -11 0 -39
-10 -63 -21 -33 -16 -45 -29 -50 -49 -3 -19 -15 -32 -33 -40 -33 -14 -77 -73
-86 -115 -4 -23 -1 -35 15 -49 26 -24 27 -42 2 -56 -13 -6 -22 -25 -26 -55
-12 -78 -58 -88 -70 -16 -8 48 -20 53 -28 12 -9 -41 3 -101 19 -101 25 0 79
40 84 62 8 33 42 29 58 -5 12 -24 11 -33 -2 -62 -9 -18 -16 -37 -16 -43 0 -5
-6 -15 -14 -22 -8 -6 -16 -20 -18 -31 -3 -17 -8 -15 -43 16 -97 86 -95 83 -95
136 0 57 35 171 75 242 40 71 107 132 188 171 73 35 96 43 132 45 16 1 17 -1
5 -9z m-2188 -16 c26 -14 42 -14 106 -5 87 13 104 9 35 -8 -71 -18 -139 -59
-168 -100 -39 -57 -30 -58 23 -3 40 43 58 54 129 76 45 14 113 28 150 31 l68
5 -70 -16 c-64 -14 -175 -57 -175 -67 0 -3 35 6 77 19 42 14 97 27 122 29 l46
5 -50 -13 c-72 -19 -170 -72 -219 -118 -46 -42 -59 -48 -50 -24 13 33 -7 13
-22 -22 -30 -72 -45 -169 -35 -231 5 -31 7 -59 6 -61 -2 -2 -14 29 -26 69 -19
63 -21 88 -17 197 l5 124 44 46 c26 27 35 41 22 34 -12 -6 -25 -16 -28 -21
-13 -22 -25 -8 -25 30 0 44 7 47 52 24z m2348 -36 c0 -12 -28 -9 -35 2 -4 6
-4 18 -1 27 6 14 8 14 21 -3 8 -10 15 -22 15 -26z m20 32 c0 -5 -8 -10 -17
-10 -15 0 -16 2 -3 10 19 12 20 12 20 0z m35 -30 c3 -5 1 -10 -4 -10 -6 0 -11
5 -11 10 0 6 2 10 4 10 3 0 8 -4 11 -10z m-1697 -16 c56 -4 99 -10 97 -14 -3
-4 -46 -16 -97 -26 -51 -10 -83 -20 -70 -22 12 -2 46 1 74 7 87 19 79 -5 -12
-34 -58 -18 -86 -35 -58 -35 8 0 34 7 57 15 22 8 41 12 41 10 0 -6 -62 -119
-71 -130 -6 -5 -9 -5 -9 1 0 15 -87 143 -121 179 l-28 30 80 -4 c53 -2 85 1
92 8 9 9 2 10 -28 6 -28 -5 -52 -2 -75 9 l-35 16 31 -4 c17 -3 76 -8 132 -12z
m1600 -3 c12 -7 11 -14 -3 -41 l-17 -33 -26 26 c-21 22 -23 28 -12 41 14 18
38 20 58 7z m256 0 c-2 -3 8 -17 23 -33 14 -15 24 -30 22 -33 -3 -2 -22 12
-42 33 -31 31 -34 38 -17 38 10 0 17 -2 14 -5z m-159 -11 c9 -15 27 -12 19 3
-5 9 -3 9 7 -1 12 -11 12 -14 0 -21 -9 -6 -10 -11 -2 -15 6 -4 11 -13 11 -19
0 -9 -3 -8 -8 1 -7 10 -15 10 -36 2 -23 -8 -27 -15 -22 -33 19 -65 18 -75 -3
-86 -12 -7 -21 -10 -22 -9 -1 2 -2 18 -4 36 -1 18 -11 42 -20 52 -15 17 -16
24 -6 49 17 39 71 65 86 41z m-2068 -6 c-3 -3 -12 -4 -19 -1 -8 3 -5 6 6 6 11
1 17 -2 13 -5z m-69 -19 c-53 -20 -120 -68 -162 -116 -89 -104 -93 -287 -9
-398 l28 -36 -41 32 c-22 17 -53 55 -70 85 -26 47 -29 62 -28 138 0 64 5 95
20 127 12 24 24 40 27 36 4 -3 29 15 57 41 52 48 159 107 195 105 13 0 6 -6
-17 -14z m1209 -11 c12 -8 34 -34 48 -59 51 -87 67 -199 45 -329 -10 -61 -28
-90 -61 -99 -14 -4 -11 2 12 24 26 24 30 35 26 62 -38 248 -79 331 -202 403
l-40 23 75 -6 c41 -3 85 -12 97 -19z m-1019 -18 c49 -25 144 -116 107 -101
-46 17 -152 17 -211 0 -80 -23 -118 -55 -156 -128 -28 -54 -32 -75 -36 -157
-3 -72 0 -105 12 -133 20 -49 2 -38 -26 16 -34 65 -37 204 -8 293 13 38 31 86
42 107 11 22 17 41 15 44 -11 11 -47 -59 -72 -140 -24 -77 -27 -99 -22 -175 4
-77 4 -84 -9 -67 -28 37 -47 124 -39 179 13 99 60 174 150 235 83 58 174 67
253 27z m672 21 c0 -2 -25 -21 -55 -41 -115 -80 -182 -183 -192 -298 -5 -46
-8 -56 -16 -43 -14 26 -1 138 23 193 30 67 84 119 165 158 71 35 75 36 75 31z
m-1775 -52 c11 -74 -1 -104 -49 -126 -47 -22 -165 -26 -184 -7 -7 7 -12 39
-12 75 0 72 10 82 82 84 24 1 57 5 73 9 17 4 42 8 56 9 24 1 27 -3 34 -44z
m2695 30 c7 -8 33 -21 59 -29 42 -12 46 -16 52 -52 5 -26 1 -49 -9 -71 -15
-32 -15 -35 6 -55 12 -12 25 -18 29 -14 4 4 0 12 -10 17 -20 12 -21 28 -5 64
15 34 49 33 66 -2 20 -44 14 -67 -29 -122 -34 -43 -44 -50 -56 -39 -9 7 -13
22 -9 38 4 25 3 27 -22 22 -23 -5 -24 -6 -7 -12 16 -6 14 -8 -14 -12 -27 -4
-35 -1 -39 14 -5 21 -22 25 -22 5 0 -21 22 -37 51 -37 34 0 58 -25 40 -43 -9
-9 -14 -9 -21 2 -6 11 -12 5 -24 -22 -8 -20 -19 -37 -24 -37 -13 0 -57 52 -70
83 -6 15 -23 32 -37 39 -14 6 -25 14 -25 17 0 12 15 28 33 34 23 9 22 42 -3
67 -33 33 -24 68 33 128 35 36 40 38 57 17z m-760 -17 l35 -23 -70 -5 c-117
-10 -196 -61 -240 -153 l-15 -32 22 30 c77 101 133 133 254 143 56 4 63 2 78
-19 24 -34 21 -38 -28 -27 -29 6 -64 6 -100 -1 -56 -10 -149 -52 -161 -71 -4
-6 16 0 43 14 103 52 255 56 281 7 9 -16 32 -101 27 -101 0 0 -19 7 -41 15
-48 17 -106 18 -160 1 -37 -11 -34 -12 46 -8 66 3 93 1 117 -12 18 -9 32 -20
32 -24 0 -4 -40 -5 -89 -4 -95 4 -186 -10 -217 -33 -16 -12 -11 -12 36 0 64
17 232 20 261 5 26 -14 27 -66 2 -54 -10 4 -43 9 -73 11 l-55 2 58 -13 c31 -7
62 -17 68 -23 22 -22 -1 -34 -54 -29 -29 3 -43 3 -32 -1 11 -3 31 -10 45 -15
l25 -10 -24 -19 c-13 -10 -32 -19 -43 -19 -25 0 -87 32 -128 67 -28 23 -31 24
-22 6 32 -59 121 -102 174 -84 39 14 48 14 48 1 0 -23 -65 -50 -125 -51 -54
-1 -57 -2 -25 -9 19 -5 55 -5 80 0 25 5 46 7 48 5 2 -2 -6 -21 -17 -42 -18
-37 -73 -93 -117 -120 -16 -10 -9 -12 44 -12 69 -1 115 -19 133 -52 14 -27 8
-32 -25 -19 -15 5 -46 9 -69 9 -33 -2 -35 -3 -12 -6 40 -5 85 -23 85 -34 0 -5
-19 -6 -42 -2 -97 18 -184 1 -276 -53 -65 -39 -46 -37 33 2 39 19 88 37 110
39 l40 5 -45 -14 c-73 -22 -93 -32 -143 -70 l-48 -37 -29 30 c-33 32 -36 56
-20 141 8 40 6 74 -5 139 -14 79 -13 86 3 105 22 26 55 55 63 56 6 0 35 -229
33 -265 -1 -11 -5 -29 -9 -40 -7 -19 -7 -19 10 -3 17 16 17 25 6 135 -7 65
-14 143 -16 173 -6 94 -24 159 -50 176 -35 23 -58 14 -72 -26 -10 -30 -12 -31
-12 -10 0 14 24 71 53 128 60 113 57 121 -10 30 -50 -68 -55 -68 -20 0 38 73
135 164 193 182 54 16 116 11 153 -12z m-1620 -98 l0 -100 -26 0 c-14 0 -23
-4 -19 -10 3 -5 15 -10 26 -10 16 0 19 -7 19 -40 0 -33 -3 -40 -20 -40 -37 0
-54 45 -58 151 -6 133 -1 149 43 149 l35 0 0 -100z m52 0 c4 -197 4 -194 -14
-198 -17 -3 -18 9 -18 147 0 128 2 151 15 151 12 0 15 -19 17 -100z m98 -44
l0 -144 -30 -7 c-16 -4 -34 -4 -40 0 -6 4 -10 63 -10 151 l0 144 40 0 40 0 0
-144z m2608 108 c26 -42 27 -52 6 -82 -15 -21 -14 -24 8 -41 21 -18 21 -21 8
-46 -8 -15 -33 -36 -55 -46 -26 -12 -63 -46 -99 -89 -31 -39 -62 -70 -69 -70
-8 0 -8 3 1 12 7 7 12 27 12 44 0 18 4 35 9 39 13 8 41 106 41 144 0 24 -4 31
-19 31 -14 0 -20 10 -25 46 -7 56 -1 68 31 59 22 -5 25 -3 19 12 -4 13 -1 12
14 -6 11 -13 20 -38 20 -57 0 -40 11 -48 44 -33 31 15 40 38 26 73 -21 57 -6
62 28 10z m-3374 14 c2 -7 8 -28 14 -46 l10 -32 -28 20 c-16 11 -48 31 -72 45
l-43 25 58 0 c38 0 59 -4 61 -12z m1802 -42 c-41 -54 -60 -128 -53 -210 l5
-61 -16 35 c-26 61 -27 133 -2 184 20 43 71 96 91 96 5 0 -6 -20 -25 -44z m70
1 c-50 -61 -77 -128 -85 -211 l-7 -71 -8 58 c-10 73 -2 135 24 186 22 45 64
81 92 81 17 0 14 -6 -16 -43z m-357 -42 c30 -15 42 -31 61 -79 l9 -26 -37 20
c-116 63 -346 -28 -416 -165 -20 -38 -20 -16 -1 58 32 122 77 174 176 202 64
18 164 13 208 -10z m-983 -165 c3 -10 2 -12 -5 -5 -6 6 -13 40 -16 75 l-4 65
9 -60 c6 -33 12 -67 16 -75z m994 70 c8 -5 -16 -8 -55 -8 -124 0 -237 -59
-302 -156 -37 -54 -42 -54 -14 2 62 120 274 213 371 162z m-1460 -51 c16 -34
27 -66 24 -70 -7 -12 -64 -11 -64 0 0 5 9 13 20 16 22 7 27 25 7 25 -24 0 -58
-46 -59 -81 -1 -29 8 -41 65 -94 53 -47 67 -66 67 -88 l0 -29 -37 29 c-21 16
-59 42 -84 58 -26 16 -55 42 -64 58 -34 58 6 157 64 157 19 0 22 3 12 9 -18
11 -64 -4 -87 -30 -18 -20 -64 -26 -64 -9 0 20 49 61 103 85 28 14 55 25 60
25 4 0 21 -28 37 -61z m1501 5 c10 -9 22 -29 28 -44 9 -28 9 -29 -15 -19 -57
21 -156 5 -219 -37 -39 -26 -25 -26 30 0 90 43 172 44 214 5 30 -28 26 -40
-10 -27 -44 15 -147 4 -196 -21 -63 -32 -60 -42 5 -15 56 23 140 31 190 18 45
-13 41 -102 -9 -159 -42 -48 -124 -77 -219 -77 -58 -1 -69 -3 -50 -10 66 -26
213 11 275 68 l25 23 -4 -35 c-5 -47 -32 -82 -91 -119 -43 -27 -57 -30 -125
-30 -51 0 -83 5 -94 14 -9 8 -19 11 -22 8 -3 -3 7 -14 22 -24 22 -14 48 -18
114 -18 74 0 92 4 140 29 l55 28 -35 -36 c-19 -20 -57 -47 -84 -61 -53 -27
-36 -35 19 -10 38 19 78 58 99 100 15 27 16 28 16 7 0 -39 -26 -77 -97 -141
-66 -60 -66 -62 -26 -42 45 22 113 84 113 103 0 6 3 9 6 6 12 -13 -18 -86 -48
-115 -44 -43 -96 -63 -167 -65 -67 -2 -73 -18 -7 -18 74 0 147 28 193 75 38
37 43 40 44 21 1 -11 1 -25 0 -30 -1 -5 -3 -25 -5 -44 -5 -63 -81 -104 -199
-106 -55 -1 -57 -2 -30 -13 40 -17 138 -16 173 2 17 9 30 13 30 10 0 -2 -19
-14 -42 -26 -32 -16 -67 -23 -135 -27 -58 -3 -90 -8 -86 -15 9 -15 173 -2 219
18 l39 16 -21 -22 c-23 -23 -116 -49 -177 -49 -60 0 -123 20 -149 47 -18 20
-23 35 -22 79 0 64 9 77 34 47 30 -37 31 -13 1 31 -53 77 -65 109 -73 201 -10
114 -12 125 -26 151 -10 19 -8 24 16 39 29 19 65 57 84 90 6 11 -12 -2 -41
-28 -29 -26 -57 -47 -62 -47 -10 0 14 70 37 105 29 44 7 39 -25 -6 -35 -47
-40 -32 -12 33 36 83 135 155 244 178 57 12 136 4 158 -16z m1216 -81 c-3 -10
-5 -2 -5 17 0 19 2 27 5 18 2 -10 2 -26 0 -35z m-829 10 c5 -10 15 -42 21 -72
10 -48 10 -56 -5 -64 -9 -5 -30 -22 -47 -37 l-31 -28 -13 36 c-9 28 -9 43 2
75 8 23 11 45 9 49 -3 5 -3 20 0 34 8 29 50 34 64 7z m-1231 -34 c79 -27 96
-39 48 -32 -47 6 -172 -21 -195 -42 -14 -13 -23 -12 -73 8 -31 12 -57 27 -57
34 0 28 121 65 184 56 22 -3 64 -14 93 -24z m1984 -72 l2 -97 -56 -29 c-30
-16 -69 -32 -85 -36 l-30 -6 -4 88 c-3 69 0 92 12 105 13 15 151 81 157 75 1
-1 3 -46 4 -100z m-2801 76 c0 -28 -12 -63 -20 -63 -12 0 -33 57 -25 69 11 18
45 13 45 -6z m3256 -7 c3 -8 -2 -26 -11 -40 -17 -25 -17 -26 3 -26 11 0 22 -5
24 -11 3 -8 14 -7 35 5 75 38 72 1 -4 -59 -58 -45 -73 -53 -73 -36 0 5 12 12
26 15 15 4 24 9 21 12 -8 9 -67 -6 -64 -16 2 -9 -1 -10 -43 -10 -23 0 -30 5
-30 19 0 10 -7 25 -16 32 -29 24 -37 60 -18 80 22 24 34 24 34 -1 0 -11 -5
-20 -11 -20 -5 0 -7 -5 -4 -10 10 -17 35 8 35 35 0 36 84 63 96 31z m-2973 -3
c3 -5 -22 -8 -54 -9 -33 0 -54 3 -47 8 16 10 95 10 101 1z m2785 -5 c15 -15
15 -43 1 -69 -10 -20 -11 -20 -30 -3 -26 23 -27 84 -1 84 10 0 23 -5 30 -12z
m-2938 -30 c0 -19 -2 -20 -10 -8 -13 19 -13 30 0 30 6 0 10 -10 10 -22z m143
-2 c49 -21 177 -164 177 -198 0 -16 -29 7 -120 95 -49 48 -97 87 -107 87 -13
0 -10 -5 12 -22 40 -29 88 -85 83 -98 -4 -13 -128 60 -143 84 -7 12 -6 19 5
26 8 5 11 10 6 10 -5 0 -3 7 4 15 16 19 41 19 83 1z m-522 -15 c21 -18 22 -19
4 -15 -25 6 -53 -32 -36 -49 8 -8 11 -8 11 1 0 7 5 12 10 12 6 0 10 -10 10
-22 0 -17 -11 -28 -38 -41 -34 -16 -73 -67 -51 -67 5 0 9 5 9 10 0 6 7 10 15
10 8 0 19 9 25 20 6 11 17 20 25 20 8 0 15 -9 15 -20 0 -12 -7 -20 -16 -20 -9
0 -18 -9 -21 -20 -5 -17 -13 -20 -49 -19 -23 2 -41 6 -38 10 2 5 -4 13 -15 18
-30 17 -36 13 -16 -9 21 -24 14 -27 -9 -4 -36 36 -9 141 47 186 30 24 89 23
118 -1z m3108 -45 c6 -4 11 -14 11 -22 0 -9 -5 -12 -11 -8 -9 5 -10 -1 -5 -20
8 -34 -11 -35 -24 0 -6 14 -10 46 -10 72 l1 47 13 -31 c8 -18 19 -35 25 -38z
m-1937 42 c32 -7 58 -15 58 -19 0 -3 -15 -11 -32 -17 -31 -11 -31 -11 12 -5
60 7 48 -2 -41 -32 l-74 -25 -77 31 c-43 17 -78 35 -78 40 0 12 88 37 134 38
22 1 66 -4 98 -11z m-246 -67 c79 -38 146 -76 149 -83 2 -7 9 -168 14 -358 12
-414 18 -395 -92 -336 -40 21 -87 50 -104 63 -34 24 -59 61 -49 70 3 3 49 -20
102 -51 53 -31 104 -56 113 -54 12 2 16 16 18 58 l1 55 -9 -44 c-4 -24 -11
-46 -14 -50 -4 -3 -21 3 -38 13 -18 11 -66 38 -107 62 -41 23 -88 53 -105 67
l-30 25 -3 316 c-2 174 0 316 3 316 3 0 71 -31 151 -69z m2354 15 c0 -30 -15
-50 -33 -43 -14 5 -14 34 -1 76 6 20 34 -6 34 -33z m-3000 -49 c0 -16 4 -26
10 -22 6 3 10 -1 10 -9 0 -25 -20 -19 -30 10 -14 35 -13 85 0 64 5 -8 10 -28
10 -43z m138 -47 c29 -22 52 -46 52 -52 0 -8 -25 -9 -84 -4 -50 3 -106 2 -136
-5 -62 -13 -89 -7 -69 17 10 12 24 15 60 10 37 -5 51 -2 72 15 30 23 34 41 12
59 -8 7 -15 17 -15 21 0 14 50 -14 108 -61z m642 50 c8 -5 11 -10 5 -10 -5 0
-17 5 -25 10 -8 5 -10 10 -5 10 6 0 17 -5 25 -10z m302 -47 l90 -47 -42 -18
-42 -18 -34 30 c-19 16 -52 39 -74 50 -52 27 -51 42 4 49 5 0 49 -20 98 -46z
m-1102 -15 c0 -4 -12 -3 -26 3 -15 5 -35 7 -45 4 -11 -4 -19 -2 -19 3 0 5 15
14 33 19 25 8 35 7 45 -5 6 -9 12 -19 12 -24z m1017 -14 c40 -25 74 -51 74
-57 3 -31 -2 -215 -7 -239 -7 -37 -24 -35 -94 7 -32 19 -63 35 -70 35 -10 0
-11 31 -8 133 5 122 12 167 26 167 3 0 38 -21 79 -46z m1552 -101 c-12 -29
-24 -51 -27 -49 -6 6 15 115 32 166 l11 35 3 -49 c2 -33 -4 -66 -19 -103z
m221 129 c0 -20 -89 -69 -133 -74 -26 -3 -47 -4 -47 -2 0 10 35 34 50 34 20 0
48 11 90 35 28 17 40 19 40 7z m-2506 -21 c3 -5 13 -44 21 -88 8 -44 29 -107
49 -145 l34 -68 -27 0 c-33 0 -53 20 -81 82 -21 48 -45 190 -36 214 6 16 32
19 40 5z m86 -31 c6 -11 17 -20 25 -20 7 0 16 -4 19 -9 4 -5 -4 -7 -16 -3 -21
5 -22 4 -9 -11 9 -11 10 -17 2 -17 -11 0 -51 57 -51 73 0 15 20 6 30 -13z
m2798 -28 c-15 -20 -24 -24 -26 -15 -5 18 16 43 35 43 11 0 8 -8 -9 -28z
m-2968 -17 c34 -21 -14 -38 -152 -54 -57 -7 -104 -19 -138 -36 -28 -14 -56
-22 -63 -18 -6 4 -34 12 -62 19 l-50 11 58 17 c31 10 85 29 120 43 34 14 82
28 107 32 44 6 162 -3 180 -14z m1007 7 c-11 -12 -17 -36 -17 -63 0 -39 -4
-48 -30 -68 -17 -12 -28 -27 -24 -33 4 -6 3 -8 -4 -4 -6 3 -12 -3 -15 -16 -2
-13 -5 14 -6 60 0 46 4 92 10 103 12 23 42 37 78 38 23 1 23 0 8 -17z m687
-11 c7 -11 -9 -18 -68 -26 -62 -10 -61 10 2 23 26 5 50 10 54 11 4 0 9 -3 12
-8z m536 -39 c0 -20 -3 -23 -12 -14 -7 7 -22 12 -33 12 -36 0 -38 14 -3 26 40
14 48 10 48 -24z m-2207 -21 c4 -18 0 -19 -48 -14 -31 3 -60 1 -74 -7 -13 -6
-25 -9 -29 -6 -11 11 8 19 75 31 37 7 69 13 69 14 1 0 4 -8 7 -18z m252 -94
c6 -5 -1 -4 -15 3 -30 15 -100 80 -100 93 0 8 52 -36 115 -96z m-405 36 c27
-51 81 -95 138 -114 20 -6 46 -16 56 -22 17 -8 15 -11 -21 -23 -39 -14 -42
-13 -108 24 -56 30 -72 45 -87 79 -44 99 -26 147 22 56z m-61 -14 c30 -74 29
-83 -11 -63 -18 9 -52 28 -75 43 l-43 26 43 22 c23 12 47 22 53 23 6 0 21 -23
33 -51z m204 30 c20 -9 92 -128 82 -137 -11 -11 -133 47 -168 80 -39 37 -40
39 -21 53 23 17 74 19 107 4z m987 -33 c0 -2 -8 -10 -17 -17 -16 -13 -17 -12
-4 4 13 16 21 21 21 13z m1199 -81 c11 -11 6 -12 -30 -4 -77 18 -199 -29 -260
-98 -18 -21 -29 -28 -29 -19 0 27 59 83 111 105 93 41 175 47 208 16z m-1357
-64 c11 -11 21 -54 32 -143 9 -69 21 -139 26 -154 6 -15 9 -29 6 -31 -2 -2
-23 5 -46 17 -51 26 -44 9 8 -20 21 -12 42 -31 47 -43 8 -18 18 -22 60 -22 28
0 66 4 85 8 26 5 23 2 -15 -12 -74 -29 -123 -26 -191 10 -95 49 -95 50 -110
201 -7 73 -13 162 -13 196 l-1 64 48 -27 c26 -15 54 -35 64 -44z m62 -141 c-6
-31 -9 -25 -19 50 -10 70 -10 88 1 101 8 8 15 26 16 40 1 13 4 -16 6 -66 2
-49 0 -106 -4 -125z m1271 166 c47 -20 46 -37 0 -25 -23 7 -51 7 -78 1 l-42
-10 60 -1 c33 -1 71 -8 84 -15 24 -13 23 -14 -25 -21 -27 -3 -65 -15 -84 -26
-19 -11 -26 -17 -15 -14 56 18 116 26 130 18 11 -7 -15 -17 -94 -36 -61 -15
-124 -35 -141 -45 -34 -20 -56 -11 -79 30 -14 24 -12 27 28 64 92 83 181 111
256 80z m468 -23 c5 -8 -10 -20 -102 -84 -24 -17 -46 -39 -48 -50 -4 -15 -9
-16 -24 -8 -27 14 -24 33 11 73 47 53 147 95 163 69z m-2399 -76 c38 -46 42
-55 20 -41 -29 19 -84 90 -84 108 0 12 4 9 64 -67z m1416 63 c0 -5 -9 -10 -21
-10 -11 0 -17 5 -14 10 3 6 13 10 21 10 8 0 14 -4 14 -10z m1010 -28 c0 -4
-17 -12 -37 -19 l-38 -11 28 24 c26 22 47 25 47 6z m-900 4 c0 -10 -114 -37
-129 -30 -10 5 6 11 49 19 85 16 80 16 80 11z m-800 -63 c-11 -17 -11 -17 -6
0 3 10 6 24 7 30 0 9 2 9 5 0 3 -7 0 -20 -6 -30z m1610 12 c-10 -12 -9 -15 6
-15 11 0 34 4 52 9 18 6 30 6 27 2 -2 -5 -26 -14 -52 -21 -41 -10 -72 -21
-106 -38 -18 -9 14 37 39 57 31 24 52 28 34 6z m-1613 -241 c-2 -3 -11 -2 -20
2 -28 10 -38 70 -25 153 l11 76 19 -114 c11 -62 17 -115 15 -117z m538 136
c-10 -46 -60 -70 -163 -80 l-87 -8 95 2 c52 1 104 6 115 11 18 8 19 7 6 -8
-20 -26 -106 -47 -188 -47 -60 0 -77 4 -93 20 -25 25 -25 85 0 74 28 -13 165
-16 207 -5 56 15 93 46 93 79 1 24 2 25 11 9 6 -10 8 -31 4 -47z m879 30 c17
-6 14 -9 -20 -26 -42 -21 -84 -74 -84 -108 0 -15 6 -8 21 21 20 41 60 73 107
88 27 8 72 -27 72 -56 0 -39 -147 -119 -232 -127 -72 -7 -237 44 -249 77 -13
34 -4 54 46 100 62 57 85 54 40 -5 -46 -60 -45 -79 1 -26 31 37 80 72 99 72 3
0 -10 -14 -29 -31 -37 -32 -82 -97 -73 -105 3 -3 19 14 36 38 67 93 165 125
265 88z m-362 -27 c-16 -21 -31 -45 -34 -53 -5 -12 -7 -11 -13 4 -7 15 0 27
28 53 48 44 56 42 19 -4z m454 -112 c-24 -27 -149 -91 -177 -91 -14 0 7 15 57
39 43 21 88 46 99 55 28 22 42 20 21 -3z m-1049 -67 c23 -3 47 -12 55 -21 11
-15 11 -16 -7 -8 -27 11 -157 19 -198 11 -19 -3 -42 -13 -53 -21 -17 -14 -17
-14 11 -4 48 18 184 16 228 -4 48 -21 41 -38 -10 -26 -21 5 -49 8 -63 8 -14 0
-1 -6 28 -14 54 -13 81 -29 69 -41 -4 -4 -16 1 -27 11 -28 25 -119 16 -188
-19 -28 -14 -53 -26 -55 -26 -6 0 -18 151 -12 159 4 8 147 4 222 -5z m678 -43
c82 -23 67 -27 -20 -6 -33 8 -87 15 -120 16 -33 0 -69 5 -80 10 -36 17 145 0
220 -20z m118 -28 c-7 -2 -21 -2 -30 0 -10 3 -4 5 12 5 17 0 24 -2 18 -5z
m-794 -57 c15 -8 34 -22 42 -32 13 -16 12 -16 -18 -1 -64 34 -155 18 -220 -37
-36 -30 -43 -24 -17 13 21 30 109 71 152 71 18 0 45 -6 61 -14z m9 -56 c29
-18 32 -24 32 -70 0 -66 -21 -105 -71 -130 -153 -79 -284 21 -183 138 67 79
155 103 222 62z m-488 -21 l45 -20 -24 -20 -24 -20 -19 32 c-15 25 -21 29 -33
19 -8 -7 -15 -21 -15 -31 0 -27 -18 -33 -46 -14 -25 16 -25 17 -7 37 18 20 48
36 68 37 6 0 30 -9 55 -20z m355 -225 c23 3 50 8 60 11 11 3 7 -1 -10 -9 -53
-26 -146 -15 -159 19 -2 7 10 4 32 -7 26 -14 49 -18 77 -14z"/>
<path d="M1662 3598 c-13 -49 8 -107 39 -108 19 0 30 34 27 82 -3 49 -5 53
-30 56 -23 3 -28 -1 -36 -30z m38 -29 c0 -24 -4 -38 -10 -34 -17 10 -11 75 7
75 2 0 3 -18 3 -41z"/>
<path d="M1882 3278 c-19 -25 -42 -77 -67 -155 -15 -47 -35 -85 -48 -95 -16
-13 -18 -18 -6 -18 8 0 29 16 46 35 28 32 36 35 84 35 29 0 79 -7 111 -16 32
-9 60 -15 62 -13 1 2 15 44 30 92 21 69 25 92 15 103 -29 35 -204 60 -227 32z
m138 -22 c0 -8 -4 -18 -10 -21 -16 -10 -12 -33 8 -38 10 -3 6 -5 -10 -6 -32
-1 -32 0 -16 46 12 34 28 44 28 19z m48 -5 c11 -6 10 -10 -5 -16 -10 -5 -21
-7 -25 -7 -5 1 -8 -2 -8 -8 0 -5 -4 -10 -9 -10 -5 0 -4 11 2 25 13 26 23 30
45 16z m12 -98 c-13 -38 -25 -71 -29 -75 -3 -3 -35 0 -71 8 -36 8 -87 12 -115
9 -35 -3 -44 -2 -30 4 30 14 106 13 158 -3 26 -8 47 -10 47 -6 0 14 -34 22
-125 30 l-90 8 95 -3 c52 -2 106 -6 120 -10 17 -5 22 -4 15 3 -14 14 -105 32
-168 33 -47 1 -49 2 -22 10 27 8 74 3 170 -17 55 -12 16 8 -42 22 l-58 13 50
-3 c28 -2 58 -7 67 -11 13 -5 19 2 29 37 6 23 14 37 16 31 3 -7 -5 -43 -17
-80z m-15 57 c-3 -5 -12 -10 -18 -10 -7 0 -6 4 3 10 19 12 23 12 15 0z"/>
<path d="M2040 3239 c0 -5 5 -7 10 -4 6 3 10 8 10 11 0 2 -4 4 -10 4 -5 0 -10
-5 -10 -11z"/>
<path d="M2071 3013 c-10 -11 -25 -13 -60 -9 -37 5 -42 4 -27 -5 42 -26 139
-8 111 20 -6 6 -15 3 -24 -6z"/>
<path d="M1305 2860 l-40 -7 53 -2 c29 0 52 3 52 9 0 11 -5 11 -65 0z"/>
<path d="M1886 2720 c-32 -36 -42 -50 -33 -50 2 0 23 20 47 45 24 25 39 45 33
45 -6 0 -27 -18 -47 -40z"/>
<path d="M3465 2780 c-39 -7 -39 -7 15 -9 30 -1 66 -4 80 -7 17 -5 22 -3 15 3
-14 15 -64 20 -110 13z"/>
<path d="M2141 2487 c-1 -30 26 -104 35 -95 2 3 0 16 -5 29 -5 13 -14 40 -19
59 -9 33 -10 33 -11 7z"/>
<path d="M2057 2098 c-8 -12 -18 -34 -22 -48 -4 -16 3 -10 20 18 15 24 25 46
22 49 -3 2 -12 -6 -20 -19z"/>
<path d="M3143 1924 c-59 -34 -54 -40 7 -9 46 24 61 35 43 35 -5 0 -27 -12
-50 -26z"/>
<path d="M4470 1966 c0 -39 -6 -44 -24 -21 -16 21 -54 8 -71 -26 -17 -32 -20
-75 -5 -84 6 -4 10 9 10 33 0 26 7 45 20 57 19 17 21 17 40 0 16 -15 22 -15
35 -5 17 14 20 65 5 75 -6 4 -10 -8 -10 -29z"/>
<path d="M2605 1706 c-46 -14 -125 -54 -125 -62 0 -3 5 -2 12 2 7 4 55 22 108
40 88 30 93 48 5 20z"/>
<path d="M2716 1701 c-9 -10 -43 -30 -74 -43 -109 -47 -112 -49 -72 -42 50 8
141 55 158 82 18 27 11 29 -12 3z"/>
<path d="M2528 1573 c18 -2 45 -2 60 0 15 2 0 4 -33 4 -33 0 -45 -2 -27 -4z"/>
<path d="M2704 1539 c-30 -33 -91 -60 -150 -66 -32 -3 -51 -10 -47 -16 9 -14
107 -1 150 20 36 18 82 68 71 78 -2 3 -13 -4 -24 -16z"/>
<path d="M2708 1190 c-20 -11 -65 -26 -99 -34 -101 -24 -90 -36 13 -15 60 13
128 44 128 59 0 12 2 13 -42 -10z"/>
<path d="M4232 1685 c-12 -9 -20 -21 -16 -26 4 -6 10 -7 17 0 7 5 23 11 37 13
14 1 25 8 25 13 0 17 -39 17 -63 0z"/>
<path d="M720 1730 c0 -5 5 -10 11 -10 5 0 7 5 4 10 -3 6 -8 10 -11 10 -2 0
-4 -4 -4 -10z"/>
<path d="M646 1675 c-3 -8 -1 -15 3 -15 5 0 11 7 15 15 3 8 1 15 -3 15 -5 0
-11 -7 -15 -15z"/>
<path d="M707 1684 c-3 -3 -3 -12 0 -20 3 -8 0 -14 -6 -14 -6 0 -11 -5 -11
-11 0 -24 25 0 26 24 1 29 1 30 -9 21z"/>
<path d="M3867 1684 c-4 -4 -7 -14 -7 -23 0 -11 3 -12 11 -4 6 6 10 16 7 23
-2 6 -7 8 -11 4z"/>
<path d="M1623 1534 c4 -75 7 -193 7 -260 l0 -124 100 -50 c56 -28 105 -48
110 -45 12 7 13 235 2 251 -4 6 -45 28 -92 48 -87 39 -108 51 -98 61 3 4 42
-12 87 -34 44 -23 85 -41 91 -41 6 0 10 47 10 126 0 73 -4 123 -9 120 -11 -7
-27 -1 -135 49 l-79 36 6 -137z m197 -75 l0 -98 -82 39 c-94 44 -95 45 -97
167 l-1 72 90 -41 90 -41 0 -98z m-7 -163 c14 -4 17 -17 17 -71 0 -43 -4 -65
-12 -65 -6 0 -42 14 -80 31 l-68 32 0 46 c0 25 -3 56 -6 68 -6 22 -5 22 62 -7
38 -16 77 -31 87 -34z m-166 -33 c-2 -16 -4 -3 -4 27 0 30 2 43 4 28 2 -16 2
-40 0 -55z m101 -92 c75 -32 82 -37 82 -63 0 -15 -2 -28 -5 -28 -3 0 -43 19
-90 42 -71 35 -85 46 -85 66 0 13 3 22 8 20 4 -1 44 -19 90 -37z"/>
<path d="M1984 1454 c-8 -32 2 -124 15 -137 5 -5 28 -18 51 -28 l41 -18 -3 81
c-3 81 -3 83 -37 105 -44 30 -59 29 -67 -3z m56 -9 c22 -11 30 -23 30 -41 0
-21 -3 -25 -17 -19 -10 4 -26 10 -35 12 -12 4 -18 15 -18 34 0 34 1 34 40 14z
m-1 -76 c25 -9 31 -17 31 -39 0 -23 -3 -27 -20 -23 -22 6 -50 39 -50 60 0 16
-1 16 39 2z"/>
<path d="M2427 949 c7 -7 15 -10 18 -7 3 3 -2 9 -12 12 -14 6 -15 5 -6 -5z"/>
<path d="M2468 933 c7 -3 16 -2 19 1 4 3 -2 6 -13 5 -11 0 -14 -3 -6 -6z"/>
<path d="M2687 573 c-10 -58 -35 -87 -94 -108 -29 -11 -32 -14 -15 -15 38 0
92 30 108 62 9 17 14 47 12 71 l-3 42 -8 -52z"/>
<path d="M4655 4551 c-68 -25 -185 -84 -215 -110 -16 -13 5 -6 55 19 44 22
107 45 140 51 71 13 125 34 125 48 0 16 -49 12 -105 -8z"/>
<path d="M4775 4521 c-22 -10 -77 -30 -122 -46 -93 -31 -133 -60 -63 -44 23 5
51 16 63 24 12 7 49 24 82 36 57 21 111 50 90 48 -6 0 -28 -8 -50 -18z"/>
<path d="M4930 4494 c-74 -25 -139 -49 -144 -55 -17 -16 33 -10 72 10 20 10
81 33 135 50 91 31 114 42 85 40 -7 0 -74 -20 -148 -45z"/>
<path d="M2064 4515 c-7 -18 3 -35 21 -35 18 0 26 15 19 34 -8 20 -33 21 -40
1z m36 -16 c0 -5 -7 -9 -15 -9 -15 0 -20 12 -9 23 8 8 24 -1 24 -14z"/>
<path d="M3225 4491 c-3 -6 3 -9 14 -8 11 0 17 5 15 9 -7 11 -22 10 -29 -1z"/>
<path d="M5040 4460 c-41 -22 -86 -51 -100 -66 -24 -25 -23 -24 20 4 25 16 71
43 103 58 31 16 57 32 57 36 0 11 5 13 -80 -32z"/>
<path d="M3785 4440 c-8 -14 3 -30 21 -30 8 0 14 9 14 20 0 21 -24 28 -35 10z
m25 -10 c0 -5 -4 -10 -10 -10 -5 0 -10 5 -10 10 0 6 5 10 10 10 6 0 10 -4 10
-10z"/>
<path d="M4618 4367 c-46 -40 -105 -89 -133 -109 -27 -20 -71 -58 -97 -85 -52
-53 -146 -213 -179 -303 -22 -60 -22 -107 -1 -103 18 4 15 -15 -9 -49 -30 -41
-16 -46 15 -5 31 41 32 44 6 65 -18 15 -19 21 -9 57 13 49 115 245 146 282
l23 28 -15 -30 c-8 -16 -17 -47 -20 -67 -3 -20 -21 -58 -40 -85 -69 -95 -67
-123 10 -120 48 2 76 -15 60 -37 -6 -7 -27 -35 -47 -62 -21 -27 -38 -60 -38
-74 0 -21 3 -18 19 16 10 22 32 56 50 76 17 20 47 70 66 111 37 83 89 146 149
185 22 13 69 49 104 80 74 62 129 89 199 98 55 8 73 19 73 45 0 48 -109 21
-180 -44 -64 -59 -86 -72 -40 -24 82 87 181 136 311 152 56 7 88 19 78 30 -3
3 -55 -6 -115 -20 -84 -20 -125 -36 -179 -70 -81 -51 -133 -98 -156 -141 -9
-17 -50 -56 -91 -86 -89 -66 -123 -105 -157 -180 -21 -45 -29 -55 -41 -48 -8
5 -36 10 -62 10 -60 0 -61 12 -8 79 22 28 51 75 64 105 14 31 45 77 70 104 50
54 51 80 1 32 -23 -22 -32 -26 -32 -15 0 9 19 32 41 51 98 81 259 204 267 204
6 0 7 5 4 10 -11 18 -23 11 -107 -63z m-211 -216 c1 -11 -8 -27 -20 -38 -18
-15 -19 -15 -8 -1 7 9 10 22 6 28 -7 11 2 30 13 30 4 0 8 -9 9 -19z"/>
<path d="M4421 4361 c-61 -21 -127 -80 -118 -105 9 -22 43 -20 84 5 42 27 41
55 -2 51 -28 -2 -28 -1 -10 10 11 7 47 22 80 35 72 26 43 30 -34 4z"/>
<path d="M4150 4300 c-8 -5 -12 -11 -10 -14 3 -2 14 2 24 10 22 15 10 19 -14
4z"/>
<path d="M4193 4279 c-23 -11 -62 -39 -85 -61 l-43 -40 40 23 c22 12 56 35 75
49 19 15 44 32 55 38 35 20 2 13 -42 -9z"/>
<path d="M4670 4275 c-7 -9 -11 -18 -8 -21 8 -8 58 18 52 27 -8 14 -30 10 -44
-6z"/>
<path d="M4029 4230 c-13 -10 -19 -19 -13 -20 7 0 22 9 35 20 13 10 19 19 13
20 -7 0 -22 -9 -35 -20z"/>
<path d="M1860 4220 c0 -5 7 -7 15 -4 10 4 15 0 15 -11 0 -11 -5 -15 -15 -11
-8 3 -15 1 -15 -5 0 -20 35 -3 38 19 3 17 -2 22 -17 22 -12 0 -21 -4 -21 -10z"/>
<path d="M3523 4183 c1 -10 -2 -18 -8 -18 -5 0 -9 6 -8 14 1 9 -2 10 -10 2
-14 -14 9 -42 29 -34 16 6 19 39 4 48 -5 3 -9 -2 -7 -12z"/>
<path d="M5082 4173 c-41 -20 -69 -68 -51 -89 23 -28 89 -5 89 33 0 20 -2 22
-20 11 -32 -20 -37 2 -5 27 37 30 30 39 -13 18z"/>
<path d="M3895 4150 c-3 -6 1 -7 9 -4 18 7 21 14 7 14 -6 0 -13 -4 -16 -10z"/>
<path d="M3848 4095 c-36 -19 -69 -39 -73 -45 -3 -5 -16 -8 -29 -4 -14 3 -27
-1 -35 -10 -11 -13 -11 -16 1 -16 8 0 19 5 26 12 7 7 12 8 12 2 0 -6 -23 -30
-50 -53 -54 -46 -127 -144 -110 -149 5 -2 32 16 60 39 58 49 113 116 87 106
-30 -11 -18 1 40 42 31 23 67 41 80 41 24 0 73 40 73 60 0 15 -8 12 -82 -25z
m-178 -178 c0 -2 -12 -14 -27 -28 l-28 -24 24 28 c23 25 31 32 31 24z"/>
<path d="M3769 4083 c-13 -15 -12 -15 9 -4 23 12 28 21 13 21 -5 0 -15 -7 -22
-17z"/>
<path d="M3916 4079 c-15 -12 -25 -24 -22 -26 3 -3 19 6 36 21 37 31 25 35
-14 5z"/>
<path d="M4885 4078 c-27 -16 -44 -40 -38 -55 6 -15 29 -17 38 -3 3 6 -1 7 -9
4 -30 -11 -16 15 16 30 36 19 47 13 30 -14 -15 -24 -9 -26 12 -4 12 12 13 20
6 35 -12 22 -26 23 -55 7z"/>
<path d="M1389 4063 c-13 -16 -12 -17 3 -5 12 10 18 10 23 1 4 -6 1 -15 -6
-20 -9 -6 -10 -9 -2 -9 20 0 26 21 11 36 -13 13 -16 13 -29 -3z"/>
<path d="M4565 4026 c-62 -27 -70 -76 -13 -76 34 0 78 39 78 70 0 23 -21 25
-65 6z"/>
<path d="M3849 3977 c-35 -23 -79 -91 -67 -103 23 -22 146 80 135 110 -9 22
-28 20 -68 -7z m51 -5 c0 -12 -51 -57 -80 -72 -19 -9 -13 0 20 34 42 44 60 55
60 38z"/>
<path d="M4020 3962 c-93 -49 -90 -186 4 -186 89 0 175 136 118 187 -24 22
-79 21 -122 -1z m108 -8 c29 -20 28 -51 -3 -97 -42 -60 -101 -83 -137 -50 -38
34 -13 118 44 146 42 21 68 21 96 1z"/>
<path d="M4961 3936 c-12 -14 -5 -26 16 -26 15 0 18 26 4 34 -5 3 -14 0 -20
-8z"/>
<path d="M3166 3932 c-2 -4 4 -8 14 -8 10 0 16 4 14 8 -3 4 -9 8 -14 8 -5 0
-11 -4 -14 -8z"/>
<path d="M1027 3923 c-15 -14 -6 -25 10 -12 15 13 16 11 10 -10 -4 -17 -3 -21
5 -13 6 6 8 18 5 26 -7 17 -19 21 -30 9z"/>
<path d="M1560 3890 c0 -15 5 -20 18 -18 9 2 17 10 17 18 0 8 -8 16 -17 18
-13 2 -18 -3 -18 -18z m30 0 c0 -5 -4 -10 -10 -10 -5 0 -10 5 -10 10 0 6 5 10
10 10 6 0 10 -4 10 -10z"/>
<path d="M3536 3854 c-9 -24 -2 -26 12 -4 7 11 8 20 3 20 -5 0 -12 -7 -15 -16z"/>
<path d="M4752 3834 c4 -21 22 -23 26 -1 2 10 -3 17 -13 17 -10 0 -15 -6 -13
-16z"/>
<path d="M527 3774 c-10 -10 -9 -42 2 -48 18 -11 42 6 39 28 -3 21 -28 33 -41
20z m31 -21 c-5 -25 -28 -28 -28 -4 0 12 6 21 16 21 9 0 14 -7 12 -17z"/>
<path d="M3500 3735 c-17 -25 -27 -45 -22 -45 12 0 72 64 72 78 0 24 -20 11
-50 -33z"/>
<path d="M4762 3676 c-14 -53 -52 -100 -101 -126 -20 -10 -29 -19 -21 -20 49
-1 129 86 137 150 7 53 0 51 -15 -4z"/>
<path d="M3865 3699 c-10 -15 3 -25 16 -12 7 7 7 13 1 17 -6 3 -14 1 -17 -5z"/>
<path d="M3571 3674 c-36 -30 -43 -74 -11 -74 26 0 90 57 90 81 0 28 -42 24
-79 -7z m45 -23 c-15 -17 -46 -25 -46 -12 1 21 53 57 59 40 1 -6 -4 -18 -13
-28z"/>
<path d="M4241 3661 c-31 -29 -42 -76 -22 -96 6 -6 6 -36 -1 -81 -6 -39 -8
-83 -4 -98 8 -32 62 -62 98 -53 31 8 108 64 108 78 0 6 -18 -5 -41 -24 -53
-46 -85 -54 -118 -29 -25 19 -26 23 -26 123 0 57 -4 110 -9 118 -6 9 -5 12 1
8 5 -3 19 14 31 38 12 25 20 45 18 45 -2 0 -18 -13 -35 -29z"/>
<path d="M4185 3457 c0 -67 3 -123 8 -124 7 -3 8 -1 6 15 0 4 0 58 1 120 1 61
-2 112 -7 112 -4 0 -8 -55 -8 -123z"/>
<path d="M815 3550 c3 -5 13 -6 22 -3 13 5 15 2 10 -17 -4 -16 -3 -20 5 -12
16 16 2 42 -22 42 -12 0 -19 -4 -15 -10z"/>
<path d="M4266 3551 c-11 -17 11 -48 59 -80 56 -38 58 -30 3 21 -36 33 -38 38
-20 38 12 0 22 5 22 10 0 6 -6 10 -14 10 -8 0 -21 3 -29 6 -8 3 -18 1 -21 -5z"/>
<path d="M815 3520 c3 -5 8 -10 11 -10 2 0 4 5 4 10 0 6 -5 10 -11 10 -5 0 -7
-4 -4 -10z"/>
<path d="M4655 3478 c-33 -18 -76 -61 -92 -93 -11 -23 -4 -17 31 21 72 82 139
92 107 16 -16 -37 -49 -74 -101 -111 -26 -19 -36 -31 -26 -31 9 0 46 28 81 63
61 60 83 101 71 132 -6 17 -42 19 -71 3z"/>
<path d="M3625 3470 c3 -5 11 -10 16 -10 6 0 7 5 4 10 -3 6 -11 10 -16 10 -6
0 -7 -4 -4 -10z"/>
<path d="M246 3434 c-9 -24 -2 -26 12 -4 7 11 8 20 3 20 -5 0 -12 -7 -15 -16z"/>
<path d="M270 3420 c0 -5 5 -10 11 -10 5 0 7 5 4 10 -3 6 -8 10 -11 10 -2 0
-4 -4 -4 -10z"/>
<path d="M3432 3418 c-14 -14 -16 -38 -4 -38 12 0 32 23 32 37 0 16 -12 17
-28 1z"/>
<path d="M3689 3405 c-38 -21 -55 -67 -39 -105 16 -40 53 -49 88 -23 57 42 66
109 17 131 -32 15 -34 15 -66 -3z"/>
<path d="M5095 3381 c-3 -5 -31 -19 -63 -31 -41 -15 -71 -35 -105 -71 -37 -40
-52 -50 -70 -46 -17 5 -25 0 -34 -18 -8 -18 -8 -25 0 -25 6 0 0 -12 -14 -27
-20 -22 -21 -25 -5 -19 31 11 118 70 109 73 -23 8 76 93 140 122 37 17 67 35
67 41 0 13 -17 13 -25 1z"/>
<path d="M494 3338 c-55 -26 -62 -111 -14 -160 27 -27 36 -30 71 -25 48 6 68
21 86 65 34 81 -60 161 -143 120z m104 -30 c28 -27 30 -80 2 -108 -29 -29 -84
-27 -115 5 -34 33 -32 70 5 107 35 34 68 33 108 -4z"/>
<path d="M550 3310 c0 -5 5 -10 10 -10 6 0 10 5 10 10 0 6 -4 10 -10 10 -5 0
-10 -4 -10 -10z"/>
<path d="M495 3300 c-3 -5 -1 -10 4 -10 6 0 11 5 11 10 0 6 -2 10 -4 10 -3 0
-8 -4 -11 -10z"/>
<path d="M560 3251 c0 -5 9 -7 20 -4 11 3 20 7 20 9 0 2 -9 4 -20 4 -11 0 -20
-4 -20 -9z"/>
<path d="M510 3230 c0 -5 7 -7 15 -4 8 4 15 8 15 10 0 2 -7 4 -15 4 -8 0 -15
-4 -15 -10z"/>
<path d="M584 3226 c-3 -9 -13 -16 -21 -16 -8 0 -11 -4 -8 -10 3 -5 10 -10 15
-10 12 0 33 40 26 47 -3 3 -8 -2 -12 -11z"/>
<path d="M5090 3325 c-13 -14 -44 -37 -68 -51 -24 -14 -41 -28 -38 -31 10 -11
97 40 117 68 27 38 20 47 -11 14z"/>
<path d="M4130 3324 c0 -8 5 -12 10 -9 6 3 10 10 10 16 0 5 -4 9 -10 9 -5 0
-10 -7 -10 -16z"/>
<path d="M820 3292 c0 -12 19 -26 26 -19 2 2 -2 10 -11 17 -9 8 -15 8 -15 2z"/>
<path d="M4985 3192 c-65 -42 -122 -76 -126 -75 -4 1 -24 -13 -45 -32 l-39
-35 50 23 c59 27 295 179 295 190 0 14 -17 5 -135 -71z"/>
<path d="M3925 3250 c-8 -13 3 -30 20 -30 14 0 27 24 18 34 -10 9 -31 7 -38
-4z"/>
<path d="M4295 3250 c3 -5 8 -10 11 -10 2 0 4 5 4 10 0 6 -5 10 -11 10 -5 0
-7 -4 -4 -10z"/>
<path d="M4892 3167 c-39 -40 -43 -61 -4 -25 15 14 41 33 57 41 l30 16 -26 1
c-16 0 -37 -12 -57 -33z"/>
<path d="M4036 3119 c-23 -18 -27 -28 -24 -63 3 -38 5 -41 34 -44 25 -2 37 3
58 28 59 71 3 135 -68 79z m64 -63 c0 -2 -8 -10 -17 -17 -16 -13 -17 -12 -4 4
13 16 21 21 21 13z"/>
<path d="M5021 3090 c-52 -22 -101 -46 -110 -55 -9 -9 33 5 94 30 112 47 121
52 114 59 -2 3 -47 -13 -98 -34z"/>
<path d="M4805 3020 c-38 -16 -84 -30 -102 -30 -50 0 -84 -17 -138 -68 -48
-46 -76 -67 -216 -162 -119 -81 -259 -181 -259 -186 0 -8 78 40 168 103 60 44
111 71 167 89 85 29 91 31 83 39 -3 3 -24 -2 -48 -10 -23 -8 -45 -15 -49 -15
-6 0 115 80 121 80 2 0 1 -23 -1 -51 -3 -53 16 -89 48 -89 9 0 -19 -21 -62
-46 -43 -26 -76 -49 -73 -51 4 -4 58 22 136 67 19 11 53 20 76 20 22 0 83 14
135 31 145 48 181 76 113 90 -27 5 -24 8 46 40 41 20 96 44 122 55 27 10 48
22 48 27 0 11 -2 10 -145 -48 -73 -30 -139 -55 -144 -55 -6 0 -11 11 -11 23 0
13 -13 43 -30 65 l-30 42 60 30 c33 17 60 32 60 35 0 6 6 8 -75 -25z m-88 -64
c3 -2 5 -32 3 -46 -1 -11 -4 -9 -9 5 -6 15 -9 7 -15 -31 -7 -54 -27 -81 -63
-87 -12 -1 -27 -8 -35 -15 -11 -9 -17 -9 -27 1 -10 10 -11 6 -6 -18 5 -29 5
-29 -7 -7 -16 32 4 127 34 160 37 40 99 59 125 38z m-100 -186 c-1 -22 -17
-28 -17 -7 0 12 9 27 16 27 2 0 2 -9 1 -20z"/>
<path d="M4645 2840 c-3 -5 -1 -10 4 -10 6 0 11 5 11 10 0 6 -2 10 -4 10 -3 0
-8 -4 -11 -10z"/>
<path d="M0 2991 c0 -5 61 -30 135 -54 74 -25 135 -42 135 -38 0 4 -15 12 -32
18 -18 6 -77 27 -132 47 -110 40 -106 39 -106 27z"/>
<path d="M2 2959 c2 -6 33 -22 68 -36 36 -13 60 -19 55 -14 -18 17 -127 62
-123 50z"/>
<path d="M930 2797 c0 -7 77 -51 133 -75 74 -33 55 -16 -35 30 -101 52 -98 51
-98 45z"/>
<path d="M4990 2765 c-14 -14 -68 -53 -122 -86 -54 -34 -98 -63 -98 -65 0 -2
35 13 78 35 43 21 96 44 119 50 45 12 133 49 133 56 0 7 -58 35 -73 35 -7 0
-24 -11 -37 -25z m21 -23 c-10 -19 -41 -38 -41 -25 0 10 43 54 48 49 2 -2 -1
-13 -7 -24z"/>
<path d="M4584 2655 c-14 -14 -38 -32 -54 -40 -39 -20 -38 -26 3 -19 44 9 107
52 100 70 -8 20 -21 17 -49 -11z"/>
<path d="M4340 2644 c-13 -33 -6 -44 23 -37 27 7 68 43 61 54 -3 5 -21 9 -40
9 -28 0 -36 -5 -44 -26z"/>
<path d="M5024 2595 c-39 -19 -77 -42 -85 -51 -7 -9 28 4 79 30 84 42 105 56
85 56 -5 0 -40 -16 -79 -35z"/>
<path d="M4255 2532 c-111 -43 -108 -41 -95 -56 6 -8 10 -25 7 -38 -4 -20 -4
-19 -6 5 -1 33 -21 27 -21 -7 0 -21 -11 -27 -102 -56 -102 -32 -213 -78 -205
-86 2 -2 31 7 65 21 33 13 118 42 189 63 135 41 232 81 233 96 0 5 -15 6 -33
3 -18 -3 -43 1 -56 8 -23 12 -23 13 23 30 26 10 49 22 52 26 7 12 -3 10 -51
-9z"/>
<path d="M5040 2519 c-97 -39 -321 -144 -388 -182 -92 -51 -49 -41 64 16 60
30 174 83 254 117 153 66 156 67 149 74 -2 3 -38 -9 -79 -25z"/>
<path d="M4385 2510 c-7 -12 22 -12 50 0 17 7 15 9 -12 9 -17 1 -35 -3 -38 -9z"/>
<path d="M4724 2494 c-75 -39 -78 -51 -4 -14 71 35 78 40 63 40 -5 0 -32 -12
-59 -26z"/>
<path d="M2 2500 c2 -8 40 -24 84 -36 43 -12 173 -60 289 -107 231 -93 309
-121 327 -115 26 9 -414 184 -582 232 -47 14 -93 28 -104 32 -13 5 -17 3 -14
-6z"/>
<path d="M53 2421 c-39 -15 -76 -41 -43 -29 47 16 60 18 60 10 0 -6 -17 -14
-37 -20 l-38 -10 33 -1 c17 -1 32 -5 32 -9 0 -5 -14 -7 -30 -4 -64 9 -24 -15
93 -56 128 -46 149 -52 340 -103 l118 -32 -22 -23 c-17 -18 -34 -24 -68 -25
l-46 -1 35 -10 35 -10 -24 -13 c-24 -12 -23 -13 25 -19 27 -3 120 -10 206 -16
87 -6 199 -19 250 -30 103 -22 120 -24 98 -11 -8 5 -69 21 -135 35 -129 28
-205 53 -205 66 0 4 -13 22 -29 39 -24 26 -37 31 -73 31 -46 0 -231 58 -328
103 l-55 25 43 1 c23 1 75 -8 114 -19 39 -11 73 -18 75 -16 2 2 -34 17 -80 34
-126 46 -207 81 -246 108 -41 28 -42 28 -98 5z m567 -269 c0 -12 -31 -37 -55
-46 -16 -6 -14 -1 9 23 30 31 46 39 46 23z"/>
<path d="M5094 2374 c-18 -14 -18 -15 4 -4 12 6 22 13 22 15 0 8 -5 6 -26 -11z"/>
<path d="M640 2345 c0 -17 30 -35 59 -35 32 0 25 19 -14 36 -43 17 -45 17 -45
-1z"/>
<path d="M4817 2332 c-22 -24 -38 -69 -30 -88 5 -14 17 -16 80 -10 43 3 73 2
73 -4 0 -5 -21 -23 -46 -40 -25 -18 -44 -34 -41 -36 4 -4 217 73 226 82 12 12
-32 33 -58 28 -18 -4 -32 0 -40 10 -8 9 -22 16 -32 16 -11 0 -23 10 -28 24
-15 39 -75 50 -104 18z m24 -20 c-6 -12 -11 -30 -11 -42 0 -12 -4 -18 -10 -15
-15 10 -12 46 7 67 20 23 28 17 14 -10z"/>
<path d="M3890 2256 c-116 -47 -214 -95 -208 -101 4 -5 292 117 318 134 32 21
-9 9 -110 -33z"/>
<path d="M120 2234 c69 -8 192 -31 273 -50 82 -19 153 -34 159 -32 15 5 -275
76 -357 88 -38 5 -99 9 -135 9 -55 -1 -47 -3 60 -15z"/>
<path d="M820 2180 c0 -5 9 -10 20 -10 11 0 20 5 20 10 0 6 -9 10 -20 10 -11
0 -20 -4 -20 -10z"/>
<path d="M195 2170 c-25 -6 -21 -8 25 -9 30 0 70 -5 88 -10 42 -13 41 -4 -3
15 -37 15 -62 16 -110 4z"/>
<path d="M5063 2002 c-60 -24 -65 -35 -8 -18 26 8 53 20 58 25 15 15 -1 13
-50 -7z"/>
<path d="M645 1960 c-30 -4 22 -7 130 -7 121 0 164 2 130 7 -60 10 -191 10
-260 0z"/>
<path d="M105 1944 c-45 -23 -105 -85 -105 -108 0 -17 5 -14 30 16 43 52 80
76 128 84 35 5 42 3 52 -16 9 -16 9 -25 1 -33 -6 -6 -11 -26 -11 -44 0 -18 -5
-33 -10 -33 -6 0 -9 -6 -8 -12 2 -7 -8 -14 -22 -16 -24 -2 -24 -2 -6 13 15 11
16 15 5 15 -9 0 -25 -10 -36 -22 -11 -13 -29 -29 -39 -36 -17 -11 -14 -12 22
-9 22 3 48 0 57 -5 13 -7 26 -2 53 18 40 31 94 104 94 128 0 9 -19 29 -42 46
-47 35 -113 40 -163 14z"/>
<path d="M99 1853 l-34 -36 37 29 c21 16 38 32 38 37 0 12 -5 9 -41 -30z"/>
<path d="M803 1873 c9 -2 25 -2 35 0 9 3 1 5 -18 5 -19 0 -27 -2 -17 -5z"/>
<path d="M4953 1845 l-28 -25 50 7 c61 7 65 11 41 29 -26 19 -30 18 -63 -11z"/>
<path d="M4984 1804 c-18 -14 -15 -15 34 -11 29 2 58 9 65 16 18 18 -75 14
-99 -5z"/>
<path d="M4995 1630 c-60 -16 -185 -53 -276 -82 -118 -39 -170 -52 -181 -45
-22 14 -63 1 -101 -32 -61 -55 -40 -51 263 52 102 34 238 76 303 92 64 16 117
33 117 37 0 11 -2 11 -125 -22z m-475 -145 c0 -2 -13 -11 -30 -20 -16 -9 -30
-11 -30 -6 0 7 22 19 58 30 1 1 2 -1 2 -4z"/>
<path d="M25 1590 c17 -5 51 -14 77 -21 26 -6 76 -28 111 -49 47 -27 72 -36
95 -32 51 7 135 -24 199 -75 224 -178 375 -332 412 -420 7 -18 18 -31 24 -30
17 3 19 -26 4 -47 -13 -17 -16 -14 -48 43 -35 64 -158 220 -173 221 -4 0 11
-21 33 -47 54 -62 136 -182 129 -189 -3 -3 -27 23 -54 58 -109 143 -180 221
-243 266 -36 26 -115 84 -175 130 -59 45 -113 82 -120 82 -6 -1 5 -13 24 -28
18 -15 63 -52 99 -82 l65 -54 -45 -11 -44 -11 -55 49 c-30 27 -71 60 -90 73
-44 28 -240 108 -248 100 -8 -8 -10 -7 118 -57 104 -40 121 -50 187 -114 56
-54 73 -77 73 -98 0 -19 17 -48 56 -94 31 -36 74 -94 96 -127 37 -58 39 -64
33 -115 -4 -29 -13 -72 -21 -94 -10 -29 -12 -62 -8 -117 8 -93 -5 -139 -54
-195 -43 -48 -165 -159 -207 -188 -37 -25 -35 -23 102 102 117 106 125 119
148 236 5 26 3 25 -14 -10 -10 -22 -51 -70 -90 -107 -40 -38 -69 -68 -65 -68
4 0 -3 -12 -17 -26 l-24 -27 25 13 c14 7 53 42 88 77 34 35 62 58 62 51 0 -7
-48 -58 -107 -114 -99 -96 -151 -132 -213 -150 -24 -7 -24 -6 5 17 17 14 47
37 67 52 25 19 35 32 31 43 -8 22 -82 13 -138 -15 -42 -22 -70 -27 -79 -12 -3
5 18 12 46 15 45 6 49 9 37 22 -12 11 -20 12 -47 2 -24 -9 -39 -10 -62 -1
l-30 11 0 -49 c0 -29 4 -48 9 -44 5 3 12 1 15 -4 3 -5 -1 -11 -9 -15 -12 -4
-15 -32 -15 -156 0 -82 2 -150 6 -150 3 0 40 18 83 41 90 47 138 56 201 37 30
-9 60 -11 90 -6 25 4 76 12 114 18 38 5 72 12 75 15 2 3 -1 20 -7 38 -25 69
-3 117 54 117 26 0 197 -113 225 -148 20 -26 20 -60 2 -108 -4 -11 11 -14 88
-14 101 0 139 6 139 22 0 6 -7 7 -17 4 -9 -4 -32 4 -56 20 -44 29 -40 36 24
48 21 4 42 13 49 21 9 11 2 18 -42 40 -73 35 -117 73 -99 84 21 13 3 31 -31
31 -42 0 -24 20 40 43 44 16 53 16 113 2 35 -8 85 -15 110 -15 63 0 79 -20 79
-97 l0 -60 -44 -17 c-52 -20 -80 -46 -50 -46 79 -1 179 -11 187 -19 6 -6 -4
-13 -29 -20 -45 -13 -71 -27 -63 -36 4 -3 82 -4 175 -3 l169 3 -50 23 c-27 13
-74 29 -103 35 -44 9 -61 20 -99 60 l-46 49 59 24 c73 29 105 61 106 103 2 49
-30 83 -108 113 -37 14 -70 30 -71 35 -2 5 45 20 104 33 128 27 153 35 153 52
0 10 -36 13 -153 13 -83 0 -157 -3 -163 -7 -8 -5 -22 27 -44 95 -37 118 -127
299 -209 425 -66 100 -178 210 -272 265 -35 21 -89 53 -119 71 -30 18 -78 47
-106 65 -35 22 -73 36 -120 43 -42 7 -100 26 -149 50 -58 28 -97 40 -140 43
-47 4 -53 3 -30 -5z m582 -352 c44 -32 120 -124 111 -134 -10 -9 -188 141
-188 158 0 17 34 7 77 -24z m-9 -368 c0 -19 -3 -44 -8 -55 -6 -13 -8 7 -8 60
0 55 3 72 8 55 4 -14 8 -41 8 -60z m392 -88 c0 -13 -3 -13 -13 3 -8 11 -17 29
-20 40 -6 17 -4 17 13 -4 11 -13 20 -30 20 -39z m-410 -72 c10 -19 30 -47 43
-61 22 -23 24 -32 19 -75 l-6 -49 -12 60 c-8 40 -12 50 -13 30 -2 -34 -33
-109 -50 -119 -14 -9 -14 -7 4 44 8 23 15 52 14 64 0 11 -10 -5 -21 -37 -11
-32 -22 -57 -24 -54 -2 2 3 36 11 75 11 53 13 83 5 114 -5 24 -10 50 -10 58 0
13 1 13 11 0 5 -8 18 -31 29 -50z m68 8 c16 -44 9 -45 -11 -3 -9 19 -13 35 -9
35 4 0 13 -14 20 -32z m28 -172 c-9 -60 -24 -59 -24 1 0 54 6 69 20 55 6 -6 8
-29 4 -56z m-217 -122 c-39 -42 -133 -115 -169 -134 -31 -16 -22 -7 60 57 36
28 80 67 99 87 19 20 37 33 40 31 2 -3 -11 -21 -30 -41z m42 -3 c-25 -34 -105
-103 -141 -120 -18 -8 -15 -4 10 16 19 15 58 51 85 79 55 58 78 70 46 25z
m-326 -47 c-70 -34 -105 -42 -105 -24 0 6 11 10 24 10 13 0 48 11 78 25 80 37
83 29 3 -11z m326 8 c-5 -10 -18 -25 -28 -33 -12 -10 -11 -5 6 19 24 35 38 43
22 14z m-261 -86 c0 -8 -112 -78 -117 -73 -2 3 9 13 27 22 18 9 30 19 27 21
-3 3 -23 -4 -46 -16 -23 -11 -41 -18 -41 -15 0 9 80 46 89 41 4 -3 17 1 27 9
19 14 34 19 34 11z"/>
<path d="M5075 1558 c-83 -29 -236 -91 -232 -94 5 -5 259 86 272 97 12 12 -1
10 -40 -3z"/>
<path d="M3808 1474 c-16 -8 -28 -17 -28 -19 0 -11 19 -4 41 15 29 23 24 25
-13 4z"/>
<path d="M4543 1430 c-34 -14 -28 -21 7 -9 17 6 30 13 30 15 0 6 -12 4 -37 -6z"/>
<path d="M4397 1410 c-41 -8 -62 -21 -31 -19 10 0 42 7 69 14 53 13 25 18 -38
5z"/>
<path d="M0 1342 c0 -5 20 -22 45 -40 25 -17 45 -37 45 -44 0 -7 -9 -28 -20
-46 l-20 -33 32 -39 c39 -46 95 -147 86 -155 -3 -4 -12 -7 -20 -9 -25 -3 -38
-17 -38 -40 0 -30 25 -53 34 -31 3 8 14 15 24 15 35 0 122 -52 161 -96 40 -45
111 -171 111 -196 0 -7 -23 -36 -50 -63 -27 -27 -50 -55 -50 -61 0 -7 34 20
75 60 l74 71 -6 75 c-5 70 -19 118 -29 107 -3 -2 0 -16 5 -31 6 -14 8 -32 5
-41 -4 -10 -18 4 -45 45 -52 78 -122 154 -164 180 -20 12 -58 57 -90 105 -30
47 -64 89 -75 95 -20 11 -20 11 2 51 l23 40 -48 45 c-47 42 -67 53 -67 36z
m140 -408 c0 -8 -4 -14 -10 -14 -5 0 -10 9 -10 21 0 11 5 17 10 14 6 -3 10
-13 10 -21z"/>
<path d="M223 1310 c2 -8 13 -20 25 -26 12 -6 19 -14 15 -17 -3 -4 -1 -7 5 -7
17 0 15 15 -3 30 -8 7 -15 9 -15 4 0 -4 -7 1 -16 12 -10 12 -14 14 -11 4z"/>
<path d="M1019 1195 c29 -14 56 -23 59 -21 5 6 -48 30 -88 40 -14 3 -1 -6 29
-19z"/>
<path d="M4675 1126 c-350 -102 -452 -138 -535 -191 -69 -43 -59 -45 23 -4 95
49 166 73 492 169 288 85 388 118 355 119 -8 0 -159 -42 -335 -93z"/>
<path d="M250 1199 c0 -5 5 -7 10 -4 6 3 10 8 10 11 0 2 -4 4 -10 4 -5 0 -10
-5 -10 -11z"/>
<path d="M21 1143 c-1 -18 4 -33 9 -33 12 0 12 17 0 45 -7 17 -9 15 -9 -12z"/>
<path d="M380 1116 c0 -18 27 -39 40 -31 7 4 7 12 0 26 -12 22 -40 26 -40 5z"/>
<path d="M282 1089 c2 -6 8 -10 13 -10 5 0 11 4 13 10 2 6 -4 11 -13 11 -9 0
-15 -5 -13 -11z"/>
<path d="M4730 1046 c-144 -49 -241 -93 -332 -148 -46 -27 -145 -81 -220 -119
-75 -38 -161 -84 -190 -102 -29 -18 -80 -46 -113 -62 -34 -17 -53 -31 -44 -33
20 -4 108 35 169 73 49 32 316 174 505 270 116 58 311 133 321 122 3 -2 -22
-39 -55 -80 -34 -42 -54 -74 -46 -71 16 6 121 126 127 145 6 17 28 2 28 -18 0
-9 -34 -49 -75 -89 -41 -40 -75 -76 -75 -80 0 -4 10 1 22 12 13 11 8 1 -11
-24 -31 -40 -121 -102 -148 -102 -25 0 -12 25 23 48 20 13 33 26 30 29 -7 8
-98 -50 -106 -67 -28 -62 -40 -78 -79 -108 -57 -43 -67 -32 -13 14 23 19 42
40 42 46 0 5 -19 -7 -42 -27 -41 -34 -45 -36 -96 -29 l-54 7 6 -30 c9 -39 -23
-79 -96 -117 -29 -16 -74 -49 -100 -74 -56 -54 -78 -49 -25 6 43 44 47 62 14
62 -14 0 -40 -18 -67 -45 -24 -25 -50 -45 -57 -45 -22 0 4 39 38 58 35 20 37
32 6 32 -27 0 -47 -19 -71 -68 -18 -34 -36 -35 -36 -1 0 44 29 78 75 90 25 6
45 14 45 18 0 9 -140 -9 -168 -22 -15 -7 -32 -7 -49 -1 -77 27 -47 96 74 168
74 44 81 51 72 69 -11 19 -12 19 -33 -6 -11 -14 -47 -41 -78 -61 -59 -37 -103
-87 -144 -168 -13 -25 -45 -73 -72 -105 -27 -32 -71 -89 -99 -128 -55 -75
-125 -140 -242 -225 -91 -67 -75 -80 18 -15 100 68 202 165 262 248 70 96 138
167 159 167 53 0 50 -63 -7 -162 -42 -74 -57 -86 -83 -63 -9 8 -19 15 -23 15
-3 0 -50 -39 -104 -86 -180 -158 -182 -164 -48 -164 84 0 100 3 133 24 44 28
82 41 82 28 0 -6 -15 -19 -32 -31 l-33 -21 122 0 123 0 212 96 c286 128 597
251 798 314 272 85 250 73 250 132 0 49 0 50 -27 44 -19 -4 -38 0 -57 13 -22
14 -35 17 -52 10 -51 -19 -6 64 57 105 36 24 40 30 34 57 -8 34 9 85 31 93 8
3 14 12 14 21 0 14 -3 14 -29 0 -17 -8 -43 -31 -58 -52 -32 -42 -128 -143
-136 -143 -3 0 -8 8 -11 17 -5 11 3 26 24 44 16 15 30 38 30 51 0 32 30 109
53 135 11 12 44 32 73 44 30 13 54 29 54 37 0 15 -24 10 -75 -15 -63 -32 -92
-62 -106 -108 -7 -25 -17 -45 -21 -45 -21 0 -18 35 6 79 33 61 33 82 0 120
-34 41 -70 40 -194 -3z m-380 -458 c0 -11 -13 -32 -29 -47 -35 -32 -165 -103
-174 -95 -3 4 20 19 51 35 81 40 132 85 132 115 0 14 4 22 10 19 6 -3 10 -15
10 -27z m360 -81 c0 -8 -3 -17 -7 -20 -9 -9 -34 13 -27 24 8 14 34 11 34 -4z
m-692 -169 c-3 -7 -29 -26 -58 -42 -67 -37 -50 -47 19 -12 57 29 71 32 71 13
0 -8 -23 -24 -52 -38 -29 -14 -44 -25 -35 -27 8 -2 29 4 46 12 46 24 58 19 29
-11 -14 -16 -31 -39 -38 -52 -9 -17 -15 -20 -23 -12 -6 6 -17 11 -25 11 -11 0
-12 -3 -3 -14 9 -11 9 -19 -1 -35 -7 -12 -18 -21 -24 -21 -17 0 -26 30 -14 45
8 9 8 15 0 20 -5 3 -10 17 -10 31 0 14 -7 35 -15 47 -13 20 -13 25 1 45 8 12
25 22 37 22 12 1 36 7 52 15 39 17 48 18 43 3z m-560 -268 c-12 -16 -29 -30
-37 -30 -11 0 -5 10 17 30 41 38 49 38 20 0z"/>
<path d="M220 1058 c0 -14 39 -68 40 -55 0 11 -29 67 -35 67 -3 0 -5 -6 -5
-12z"/>
<path d="M320 1028 c0 -47 11 -61 35 -44 16 12 17 17 6 45 -18 41 -41 41 -41
-1z"/>
<path d="M40 1041 c0 -5 7 -12 16 -15 14 -5 15 -4 4 9 -14 17 -20 19 -20 6z"/>
<path d="M1150 1032 c0 -4 10 -13 23 -21 22 -14 22 -14 3 8 -20 22 -26 25 -26
13z"/>
<path d="M42 982 c-17 -37 -16 -63 4 -55 8 3 14 15 12 27 -1 11 1 26 5 33 4 6
4 14 -1 16 -4 3 -13 -6 -20 -21z"/>
<path d="M4425 994 c-16 -8 -37 -22 -45 -31 -8 -8 7 -3 33 12 26 15 50 25 53
22 9 -8 -72 -47 -141 -69 l-60 -18 59 4 c41 3 80 15 123 37 65 33 74 43 47 53
-24 9 -36 7 -69 -10z"/>
<path d="M1090 988 c0 -10 79 -88 90 -88 4 0 13 -14 20 -30 16 -38 46 -60 82
-60 28 0 28 1 12 25 -8 13 -40 38 -69 54 -29 17 -72 48 -94 69 -23 21 -41 35
-41 30z"/>
<path d="M1196 973 c-38 -20 -28 -25 18 -9 23 8 32 15 24 18 -8 3 -26 -1 -42
-9z"/>
<path d="M4022 958 c-23 -18 -41 -36 -41 -40 -2 -18 25 -5 65 32 52 48 33 54
-24 8z"/>
<path d="M458 930 c-3 -52 5 -67 16 -27 9 33 7 77 -3 77 -5 0 -11 -23 -13 -50z"/>
<path d="M508 928 c-3 -24 -1 -47 3 -52 5 -6 9 3 9 20 0 16 3 39 6 52 4 12 2
22 -4 22 -5 0 -12 -19 -14 -42z"/>
<path d="M1317 940 c-7 -34 -22 -38 -49 -13 -21 18 -24 5 -5 -20 16 -23 82
-34 102 -17 19 16 19 44 -1 64 -24 24 -41 19 -47 -14z"/>
<path d="M397 933 c-3 -16 -9 -36 -12 -45 -4 -11 -3 -18 4 -18 6 0 13 12 17
28 3 15 8 35 11 45 2 9 0 17 -5 17 -5 0 -12 -12 -15 -27z"/>
<path d="M1410 864 c0 -6 63 -44 74 -44 5 0 3 6 -3 14 -12 14 -71 39 -71 30z"/>
<path d="M134 800 c-33 -13 -82 -77 -90 -115 -19 -101 49 -185 151 -185 73 0
139 59 150 135 9 57 -22 125 -69 155 -35 21 -103 26 -142 10z"/>
<path d="M1640 792 c0 -11 56 -42 76 -42 9 0 14 3 11 7 -13 12 -87 42 -87 35z"/>
<path d="M1405 757 c-20 -16 -28 -33 -28 -55 0 -22 -7 -33 -24 -41 -12 -6 -23
-15 -23 -21 0 -7 6 -8 17 -2 9 5 62 7 117 5 105 -5 156 5 156 31 0 15 -21 26
-51 26 -10 0 -19 4 -19 9 0 15 -61 58 -91 66 -20 5 -33 0 -54 -18z m75 -32 c0
-11 -61 -45 -80 -45 -19 0 -10 49 11 64 17 11 27 12 45 4 13 -6 24 -16 24 -23z"/>
<path d="M4190 676 c-36 -12 -99 -40 -140 -61 -41 -21 -93 -43 -115 -50 l-40
-13 34 -1 c23 -1 70 17 144 55 61 31 133 65 161 75 28 9 44 18 36 18 -8 0 -44
-10 -80 -23z"/>
<path d="M1699 645 c-23 -12 -77 -77 -103 -122 -3 -6 1 -18 9 -26 13 -14 12
-19 -15 -45 -17 -18 -30 -41 -30 -55 0 -14 -7 -30 -15 -37 -20 -17 -19 -27 6
-40 34 -19 67 -3 143 69 82 78 113 96 174 104 56 7 74 23 70 61 -2 23 -15 38
-58 68 -46 32 -63 38 -105 38 -27 -1 -62 -7 -76 -15z m94 -1 c46 -8 47 -19 5
-37 -46 -20 -71 -51 -63 -76 8 -26 -3 -26 -35 -1 -14 11 -31 20 -37 20 -31 0
-4 54 40 80 36 22 37 22 90 14z m-115 -180 c31 -9 28 -16 -18 -42 -26 -15 -40
-30 -40 -43 0 -15 -5 -20 -22 -17 -35 5 -35 43 1 78 30 31 40 34 79 24z"/>
<path d="M1540 580 c-8 -5 -11 -12 -7 -16 4 -4 15 0 24 9 18 18 8 23 -17 7z"/>
<path d="M3038 555 c-47 -25 -69 -45 -48 -45 17 0 85 37 99 54 18 22 4 19 -51
-9z"/>
<path d="M2935 550 c-10 -11 -15 -20 -11 -20 14 0 46 21 46 30 0 16 -16 11
-35 -10z"/>
<path d="M8 503 c7 -3 16 -2 19 1 4 3 -2 6 -13 5 -11 0 -14 -3 -6 -6z"/>
<path d="M3514 448 c-62 -66 -74 -88 -18 -35 27 26 55 47 62 47 7 0 12 7 12
15 0 24 -13 18 -56 -27z"/>
<path d="M2241 444 c-30 -13 -73 -39 -95 -58 -52 -42 -71 -52 -230 -115 -140
-57 -215 -92 -259 -123 -48 -34 -22 -31 44 6 60 33 238 107 408 171 51 19 91
43 128 76 29 27 58 49 63 49 6 0 10 5 10 10 0 14 -8 12 -69 -16z"/>
<path d="M5 450 c3 -5 16 -10 28 -9 21 0 21 1 2 9 -28 12 -37 12 -30 0z"/>
<path d="M1892 431 c-30 -10 -70 -34 -91 -55 -20 -20 -40 -36 -44 -36 -3 0 -4
15 -1 33 l5 32 -26 -30 c-14 -16 -28 -40 -31 -53 -4 -13 -18 -28 -32 -33 -13
-5 -23 -12 -20 -15 7 -7 186 45 229 67 47 24 99 67 99 84 0 10 -23 27 -33 25
-1 -1 -26 -9 -55 -19z"/>
<path d="M2371 363 c22 -26 71 -42 145 -47 67 -5 68 -5 19 5 -94 19 -135 32
-146 45 -6 8 -16 14 -21 14 -6 0 -4 -7 3 -17z"/>
<path d="M2871 321 c-35 -22 -71 -48 -80 -57 -15 -17 -15 -17 9 -2 53 32 157
88 163 88 21 0 1 -22 -35 -39 -24 -11 -36 -20 -28 -20 20 -1 93 41 94 54 1 6
-12 11 -29 13 -21 2 -50 -10 -94 -37z"/>
<path d="M4795 316 c-90 -38 -203 -95 -165 -82 27 8 284 117 289 121 14 14
-36 -1 -124 -39z"/>
<path d="M2310 333 c-8 -3 -66 -24 -128 -46 -128 -45 -145 -60 -26 -23 43 13
105 31 137 40 31 9 57 21 57 26 0 11 -16 12 -40 3z"/>
<path d="M1084 239 c-10 -18 11 -31 60 -36 48 -6 61 8 34 35 -15 15 -84 16
-94 1z"/>
<path d="M3053 225 c-36 -15 -70 -72 -60 -99 11 -28 71 -20 106 14 40 40 49
70 25 87 -22 16 -31 16 -71 -2z m37 -15 c0 -14 -38 -32 -58 -28 -13 3 -10 8
13 21 35 19 45 21 45 7z"/>
<path d="M1885 206 c-74 -35 -103 -62 -35 -33 75 32 118 56 100 56 -8 0 -37
-11 -65 -23z"/>
<path d="M599 201 c-13 -11 -22 -22 -19 -24 3 -3 19 6 35 19 17 13 25 24 19
24 -7 0 -22 -9 -35 -19z"/>
<path d="M1529 211 c19 -12 6 -41 -18 -41 -30 0 -51 -11 -51 -26 0 -19 44 -18
86 2 41 20 45 50 8 64 -31 12 -44 13 -25 1z"/>
<path d="M4236 100 c-141 -66 -210 -105 -141 -80 46 17 311 148 300 149 -5 0
-77 -31 -159 -69z"/>
<path d="M2318 123 c-18 -19 -63 -51 -100 -71 -65 -34 -88 -55 -35 -31 14 6
74 25 133 43 61 18 109 37 109 44 0 6 -17 20 -37 30 l-37 19 -33 -34z"/>
<path d="M2515 150 c-3 -5 3 -10 14 -10 12 0 21 5 21 10 0 6 -6 10 -14 10 -8
0 -18 -4 -21 -10z"/>
<path d="M2665 59 c-42 -27 -75 -53 -72 -56 5 -5 157 95 157 103 0 8 -9 3 -85
-47z"/>
<path d="M784 58 c-37 -42 -47 -58 -36 -58 6 0 25 18 42 40 33 42 28 57 -6 18z"/>
<path d="M205 55 c-27 -7 -72 -22 -100 -34 -46 -18 -47 -20 -20 -21 17 0 40 6
51 14 11 8 46 21 78 29 56 15 84 28 55 26 -8 0 -36 -7 -64 -14z"/>
<path d="M2848 46 c-10 -7 -18 -16 -18 -19 0 -8 59 13 66 24 8 14 -29 10 -48
-5z"/>
</g>
</svg>