<?xml version="1.0" standalone="no"?>
<!DOCTYPE svg PUBLIC "-//W3C//DTD SVG 20010904//EN"
 "http://www.w3.org/TR/2001/REC-SVG-20010904/DTD/svg10.dtd">
<svg version="1.0" xmlns="http://www.w3.org/2000/svg"
 width="512.000000pt" height="512.000000pt" viewBox="0 0 512.000000 512.000000"
 preserveAspectRatio="xMidYMid meet">
<metadata>
Created by potrace 1.16, written by Peter Selinger 2001-2019
</metadata>
<g transform="translate(0.000000,512.000000) scale(0.100000,-0.100000)"
fill="#fcb103" stroke="none">
<path d="M2388 4543 c7 -3 16 -2 19 1 4 3 -2 6 -13 5 -11 0 -14 -3 -6 -6z"/>
<path d="M2338 4533 c7 -3 16 -2 19 1 4 3 -2 6 -13 5 -11 0 -14 -3 -6 -6z"/>
<path d="M2520 4529 c-117 -11 -315 -59 -435 -106 -352 -138 -691 -400 -885
-684 -113 -165 -246 -482 -290 -691 -34 -165 -54 -448 -31 -448 5 0 27 20 50
45 l41 45 0 -83 c0 -172 50 -378 135 -555 51 -107 110 -202 125 -202 4 0 23
11 43 24 l35 24 48 -72 c66 -98 288 -317 402 -396 492 -344 1041 -382 1527
-108 122 69 196 128 331 262 142 143 224 255 299 411 61 127 79 184 64 202
-15 18 -85 14 -81 -4 1 -7 -2 -13 -7 -13 -5 0 -11 -9 -14 -20 -3 -11 -1 -20 4
-20 13 0 7 -61 -7 -67 -6 -2 -9 -14 -7 -27 3 -14 -5 -33 -23 -54 -43 -49 -48
-38 -12 31 35 67 50 107 40 107 -4 -1 -23 -35 -42 -77 -86 -189 -280 -423
-280 -339 0 8 35 61 78 119 121 161 199 329 232 494 19 97 16 93 73 94 29 0
70 4 92 8 25 6 -83 9 -281 10 -248 1 -324 -2 -332 -12 -7 -8 -12 -115 -14
-287 l-3 -275 -29 -68 c-31 -77 -28 -90 26 -91 64 -2 40 -37 -82 -123 -95 -68
-119 -92 -151 -155 -15 -31 -41 -65 -57 -76 -47 -34 -175 -80 -279 -101 -199
-41 -358 -37 -535 10 l-77 21 -10 50 c-6 27 -59 142 -118 256 -59 114 -124
238 -143 276 l-35 70 -3 210 c-3 207 -3 210 16 193 17 -16 20 -16 25 -3 4 9
-1 20 -11 25 -9 5 -16 12 -14 15 1 4 -9 27 -22 54 -31 62 -62 163 -70 235 -4
31 -12 57 -16 57 -5 0 -18 -12 -27 -27 -15 -22 -18 -49 -18 -148 0 -66 7 -156
15 -200 9 -53 15 -150 15 -285 1 -224 -2 -210 73 -371 46 -101 76 -185 68
-197 -3 -5 31 -26 75 -47 46 -23 78 -44 75 -51 -2 -6 9 -24 25 -40 16 -15 27
-29 25 -31 -5 -5 -74 26 -81 37 -3 5 -14 10 -23 10 -9 0 -55 23 -101 50 -158
95 -289 206 -393 330 -57 68 -77 85 -102 88 -18 2 -37 12 -46 25 -38 55 -63
77 -86 77 -14 0 -23 4 -20 9 4 5 -16 54 -44 109 -65 130 -116 283 -136 412
-20 129 -15 405 11 519 15 66 57 199 80 255 7 16 5 18 -16 13 -13 -3 -44 -9
-68 -13 l-43 -7 18 34 c45 88 160 252 190 273 19 13 57 56 86 97 69 99 242
269 358 352 90 63 338 197 366 197 8 0 25 18 39 40 22 34 33 42 96 60 112 34
253 58 383 65 111 7 120 9 151 36 37 33 56 35 170 15 249 -44 431 -117 630
-254 86 -59 215 -164 254 -206 24 -25 24 -26 6 -46 -10 -11 -22 -20 -27 -20
-6 0 -44 30 -86 66 -210 180 -448 301 -703 357 -156 35 -225 42 -244 27 -24
-20 -20 -125 5 -150 21 -21 26 -22 135 -41 260 -43 523 -180 750 -390 50 -45
84 -77 78 -69 -19 20 -16 37 7 43 11 3 20 9 19 14 -2 16 -206 196 -284 250
-187 128 -367 194 -660 240 l-50 8 0 40 0 40 51 -1 c128 -3 347 -65 510 -143
383 -184 642 -465 798 -864 56 -142 93 -349 103 -571 5 -104 3 -137 -5 -132
-8 5 -12 40 -12 96 0 113 -35 383 -62 480 -46 166 -148 368 -266 526 -77 103
-118 142 -134 126 -9 -9 -7 -21 7 -52 10 -22 15 -43 12 -46 -3 -3 15 -31 40
-62 95 -117 153 -216 241 -413 50 -111 89 -327 99 -539 7 -159 25 -220 77
-261 24 -19 26 -27 26 -91 0 -39 -11 -121 -26 -186 -104 -462 -340 -807 -732
-1071 -54 -36 -63 -46 -58 -64 24 -82 24 -83 -53 -121 -86 -44 -105 -47 -35
-6 65 38 78 53 70 84 l-6 25 -88 -43 c-105 -53 -210 -91 -317 -117 -110 -26
-110 -26 -121 24 l-9 42 -115 -3 c-331 -10 -646 75 -956 255 -146 86 -426 313
-445 361 -5 13 -13 21 -18 18 -4 -3 -16 3 -26 14 -18 20 -18 20 -41 0 l-22
-21 -78 113 c-42 62 -108 172 -145 243 -67 129 -149 322 -149 350 0 8 -4 15
-10 15 -10 0 -4 -65 7 -84 3 -4 7 -35 9 -69 3 -34 8 -64 13 -67 10 -6 20 -48
27 -109 4 -41 12 -65 52 -151 8 -19 16 -37 16 -40 1 -3 16 -26 34 -52 18 -27
30 -48 26 -48 -4 0 0 -8 9 -18 10 -10 14 -22 10 -27 -5 -4 -3 -5 3 -2 7 4 24
-9 40 -31 16 -20 75 -84 132 -140 56 -57 109 -116 117 -132 16 -30 106 -111
174 -156 121 -80 144 -93 153 -88 4 3 8 0 8 -5 0 -6 6 -11 14 -11 8 0 17 -7
20 -16 4 -9 9 -14 12 -11 3 3 14 -3 25 -14 11 -11 24 -17 29 -14 6 4 10 1 10
-5 0 -6 5 -8 10 -5 6 3 10 1 10 -4 0 -6 6 -11 14 -11 8 0 16 -4 18 -8 5 -13
126 -77 198 -105 80 -31 128 -44 203 -52 32 -3 73 -14 91 -25 18 -10 64 -21
102 -25 38 -3 87 -8 109 -11 30 -4 36 -2 25 5 -11 8 16 11 95 11 62 0 163 9
230 20 66 11 123 20 127 20 4 0 23 -14 43 -31 l35 -32 63 23 c260 94 501 251
691 451 289 304 486 675 565 1066 30 145 30 145 -29 173 -27 13 -50 26 -51 29
-1 3 -2 76 -4 161 -8 408 -133 782 -370 1102 -35 48 -61 90 -56 92 4 3 24 -3
43 -14 32 -17 38 -17 57 -4 11 8 21 22 21 29 0 22 -233 251 -334 330 -259 201
-557 325 -850 354 -122 12 -196 12 -336 0z m1830 -2194 c-19 -110 -70 -287
-91 -315 -9 -13 -10 -12 -5 3 41 127 96 373 96 430 0 7 3 7 9 2 6 -6 3 -51 -9
-120z m-640 12 c0 -18 -46 -158 -69 -209 -30 -68 -201 -341 -208 -334 -2 2 0
21 6 42 5 22 13 140 17 264 4 148 10 228 18 232 10 7 236 12 236 5z m-155
-728 c-28 -28 -72 -69 -100 -91 -27 -23 -7 0 45 50 104 99 133 122 55 41z
m-245 -183 c-16 -20 -70 -47 -70 -36 0 17 20 52 44 78 l21 23 7 -27 c4 -15 3
-33 -2 -38z m-60 -566 c-8 -5 -19 -10 -25 -10 -5 0 -3 5 5 10 8 5 20 10 25 10
6 0 3 -5 -5 -10z"/>
<path d="M2205 4506 c-302 -85 -605 -267 -859 -515 -216 -211 -364 -443 -449
-701 -55 -165 -99 -426 -95 -560 1 -60 2 -57 23 140 46 415 178 725 429 1013
238 272 628 519 976 619 52 15 86 27 75 27 -11 0 -56 -11 -100 -23z"/>
<path d="M3016 3788 c-9 -13 -16 -43 -16 -69 0 -74 -14 -78 -124 -41 -182 62
-365 62 -564 1 l-94 -29 -385 0 c-373 0 -386 -1 -414 -21 -16 -11 -29 -25 -29
-30 0 -5 179 -9 450 -9 374 0 457 3 486 15 153 64 410 57 578 -14 40 -18 54
-19 87 -11 49 13 69 43 69 101 0 25 3 49 7 52 9 9 102 -44 184 -104 80 -59
219 -202 281 -289 128 -180 215 -452 206 -640 l-3 -65 -140 0 -140 0 -1 55
c-5 174 -33 299 -95 423 -33 64 -48 77 -23 20 58 -136 80 -253 71 -386 -4 -51
-13 -113 -21 -139 -7 -26 -11 -49 -8 -52 3 -4 94 -6 203 -6 248 0 234 -9 225
146 -14 259 -80 454 -224 670 -114 169 -282 324 -443 409 -78 41 -102 43 -123
13z"/>
<path d="M3680 3613 c0 -7 22 -47 50 -88 59 -92 173 -313 191 -372 6 -24 16
-43 21 -43 4 0 8 2 8 5 0 13 -81 217 -105 265 -45 88 -164 257 -165 233z"/>
<path d="M2668 3423 c7 -3 16 -2 19 1 4 3 -2 6 -13 5 -11 0 -14 -3 -6 -6z"/>
<path d="M2714 3410 c-5 -5 -59 -14 -119 -19 -177 -14 -270 -62 -401 -207 -42
-46 -83 -84 -92 -84 -23 0 -143 70 -149 87 -10 25 36 100 97 163 l55 57 -415
-5 c-362 -4 -465 -10 -448 -27 2 -2 73 -5 158 -6 85 -1 178 -4 207 -7 l52 -5
-38 -56 c-44 -66 -91 -145 -91 -154 0 -4 77 -7 171 -7 159 0 171 -1 164 -17
-52 -119 -104 -334 -91 -369 4 -11 31 -14 124 -14 84 0 122 -4 129 -12 5 -7
17 -44 26 -83 39 -162 156 -310 299 -379 104 -49 150 -60 263 -59 167 0 290
56 412 187 70 74 113 148 140 240 17 56 22 196 10 264 -5 29 -4 41 3 37 13 -8
13 1 -5 58 -47 156 -170 303 -314 375 -47 24 -90 40 -98 38 -7 -3 -15 -1 -18
4 -8 13 -18 13 -31 0z m29 -228 c77 -38 148 -111 185 -190 23 -49 27 -70 27
-152 0 -82 -4 -103 -27 -152 -37 -80 -107 -152 -187 -191 -59 -29 -74 -32
-156 -32 -76 0 -99 5 -147 27 -80 37 -151 107 -191 187 -30 61 -32 73 -32 166
0 120 18 167 91 246 88 93 176 131 296 126 62 -3 89 -10 141 -35z"/>
<path d="M2518 3106 c-96 -26 -173 -104 -199 -201 -16 -59 -5 -147 24 -198 96
-164 296 -192 431 -61 58 56 80 108 80 189 0 87 -27 147 -90 205 -73 67 -158
90 -246 66z m135 -141 c45 -22 69 -60 75 -116 8 -83 -48 -145 -128 -143 -54 2
-105 36 -124 84 -20 51 -20 73 1 117 31 66 108 91 176 58z"/>
<path d="M3191 2894 c0 -11 3 -14 6 -6 3 7 2 16 -1 19 -3 4 -6 -2 -5 -13z"/>
<path d="M1432 2840 c0 -14 2 -19 5 -12 2 6 2 18 0 25 -3 6 -5 1 -5 -13z"/>
<path d="M844 2705 c0 -71 1 -99 3 -62 2 37 2 96 0 130 -2 34 -3 4 -3 -68z"/>
<path d="M1432 2605 c0 -16 2 -22 5 -12 2 9 2 23 0 30 -3 6 -5 -1 -5 -18z"/>
<path d="M852 2545 c-1 -16 3 -48 7 -70 11 -53 12 -5 2 55 -6 34 -9 37 -9 15z"/>
<path d="M1441 2540 c-1 -28 32 -149 48 -177 15 -26 13 -12 -5 38 -8 24 -22
71 -29 104 -7 33 -14 49 -14 35z"/>
<path d="M872 2410 c0 -14 2 -19 5 -12 2 6 2 18 0 25 -3 6 -5 1 -5 -13z"/>
<path d="M882 2370 c0 -8 6 -31 13 -50 7 -19 13 -28 13 -20 0 8 -6 31 -13 50
-7 19 -13 28 -13 20z"/>
<path d="M3251 2289 c-53 -77 -157 -185 -225 -233 -79 -57 -144 -89 -236 -117
-97 -30 -269 -32 -375 -5 -134 35 -299 123 -288 153 4 11 2 14 -5 9 -8 -5 -12
1 -13 16 -1 13 -2 33 -3 44 0 12 -24 43 -55 70 l-54 48 6 -144 c4 -80 12 -161
18 -180 16 -46 169 -308 224 -385 57 -79 111 -130 160 -151 61 -26 206 -30
301 -9 95 20 242 88 330 150 91 65 200 179 230 242 l27 54 -2 241 c-1 133 -3
243 -4 244 -1 1 -17 -20 -36 -47z m-1166 -179 c10 -11 16 -20 13 -20 -3 0 -13
9 -23 20 -10 11 -16 20 -13 20 3 0 13 -9 23 -20z m1085 -195 l9 -50 -59 -57
c-107 -103 -257 -189 -386 -223 -76 -20 -235 -20 -273 -1 -50 26 -108 105
-142 193 -8 23 -7 25 11 20 11 -3 20 0 20 5 0 6 10 3 22 -8 12 -10 18 -13 14
-6 -8 13 6 17 17 5 8 -7 15 -8 144 -19 192 -15 376 41 542 165 30 23 58 38 63
33 4 -4 12 -30 18 -57z"/>
<path d="M915 2258 c18 -60 70 -181 109 -253 58 -107 136 -232 136 -218 0 6
-22 47 -49 91 -61 98 -141 257 -171 340 -22 59 -39 87 -25 40z"/>
<path d="M2708 1993 c7 -3 16 -2 19 1 4 3 -2 6 -13 5 -11 0 -14 -3 -6 -6z"/>
<path d="M785 1918 c24 -79 127 -255 223 -382 122 -159 482 -549 482 -521 0 2
16 -12 37 -31 20 -19 38 -32 40 -30 4 4 35 -20 77 -59 16 -15 176 -91 206 -98
14 -4 30 -7 35 -9 6 -1 26 -10 45 -19 19 -9 49 -16 67 -15 18 1 34 -3 36 -7 1
-5 15 -10 30 -10 15 -1 27 -5 27 -10 0 -4 3 -6 8 -6 4 1 9 0 12 -1 3 -1 20 -3
38 -5 51 -4 26 9 -73 40 -354 108 -701 354 -960 680 -137 172 -199 264 -271
400 -55 103 -72 127 -59 83z"/>
<path d="M2238 703 c7 -3 16 -2 19 1 4 3 -2 6 -13 5 -11 0 -14 -3 -6 -6z"/>
</g>
</svg>
